<svg version="1.1" xmlns="http://www.w3.org/2000/svg" viewBox="0 0 1000 468" width="750" height="268">
  <!-- svg-source:excalidraw -->
  
  <defs>
    <style>
      @font-face {
        font-family: "Virgil";
        src: url("https://excalidraw.com/Virgil.woff2");
      }
      @font-face {
        font-family: "Cascadia";
        src: url("https://excalidraw.com/Cascadia.woff2");
      }
    </style>
  </defs>
  <g stroke-linecap="round" transform="translate(325.2115944210325 10) rotate(0 112.64254716034537 69.48123620309053)"><path d="M34.74 0 L190.54 0 L198.69 0.54 L205.74 2.17 L211.71 4.89 L216.6 8.69 L220.4 13.57 L223.11 19.54 L224.74 26.6 L225.29 104.22 L224.74 112.36 L223.11 119.42 L220.4 125.39 L216.6 130.28 L211.71 134.08 L205.74 136.79 L198.69 138.42 L190.54 138.96 L34.74 138.96 L26.6 138.42 L19.54 136.79 L13.57 134.08 L8.69 130.28 L4.89 125.39 L2.17 119.42 L0.54 112.36 L0 104.22 L0.54 26.6 L2.17 19.54 L4.89 13.57 L8.69 8.69 L13.57 4.89 L19.54 2.17 L26.6 0.54 L34.74 0" stroke="none" stroke-width="0" fill="#228be6"></path><path d="M34.74 0 M34.74 0 C96.35 0, 157.95 0, 190.54 0 M190.54 0 C213.7 0, 225.29 11.58, 225.29 34.74 M225.29 34.74 C225.29 58.23, 225.29 81.71, 225.29 104.22 M225.29 104.22 C225.29 127.38, 213.7 138.96, 190.54 138.96 M190.54 138.96 C150.5 138.96, 110.46 138.96, 34.74 138.96 M34.74 138.96 C11.58 138.96, 0 127.38, 0 104.22 M0 104.22 C0 86.75, 0 69.27, 0 34.74 M0 34.74 C0 11.58, 11.58 0, 34.74 0" stroke="transparent" stroke-width="1.5" fill="none" stroke-dasharray="8 9"></path></g><g transform="translate(355.0481497158595 36.92562027446252) rotate(0 79.5 43)"><text x="79.5" y="30" font-family="Helvetica, Segoe UI Emoji" font-size="36.15442504515355px" fill="#fff" text-anchor="middle" style="white-space: pre;" direction="ltr">Persistent</text><text x="79.5" y="73" font-family="Helvetica, Segoe UI Emoji" font-size="36.15442504515355px" fill="#fff" text-anchor="middle" style="white-space: pre;" direction="ltr">storage</text></g><g stroke-linecap="round" transform="translate(10 18.476821192052967) rotate(0 71.14247311827957 55.83333333333337)"><path d="M27.92 0 L114.37 0 L126.58 1.74 L131.38 3.93 L135.31 6.98 L138.36 10.9 L140.54 15.7 L142.28 27.92 L141.85 90.29 L140.54 95.96 L138.36 100.76 L135.31 104.69 L131.38 107.74 L126.58 109.92 L114.37 111.67 L27.92 111.67 L15.7 109.92 L10.9 107.74 L6.98 104.69 L3.93 100.76 L1.74 95.96 L0.44 90.29 L0.44 21.37 L1.74 15.7 L3.93 10.9 L6.98 6.98 L10.9 3.93 L15.7 1.74 L27.92 0" stroke="none" stroke-width="0" fill="#ced4da"></path><path d="M27.92 0 M27.92 0 C49.16 0, 70.4 0, 114.37 0 M114.37 0 C132.98 0, 142.28 9.31, 142.28 27.92 M142.28 27.92 C142.28 48.79, 142.28 69.67, 142.28 83.75 M142.28 83.75 C142.28 102.36, 132.98 111.67, 114.37 111.67 M114.37 111.67 C95.7 111.67, 77.04 111.67, 27.92 111.67 M27.92 111.67 C9.31 111.67, 0 102.36, 0 83.75 M0 83.75 C0 71.4, 0 59.06, 0 27.92 M0 27.92 C0 9.31, 9.31 0, 27.92 0" stroke="transparent" stroke-width="1.5" fill="none" stroke-dasharray="8 9"></path></g><g transform="translate(33.41397849462376 41.71069215979469) rotate(0 45.387096774193566 36.201612903225794)"><text x="45.38709677419356" y="25.201612903225808" font-family="Helvetica, Segoe UI Emoji" font-size="30.258064516129036px" fill="#1864ab" text-anchor="middle" style="white-space: pre;" direction="ltr">Data </text><text x="45.38709677419356" y="61.403225806451616" font-family="Helvetica, Segoe UI Emoji" font-size="30.258064516129036px" fill="#1864ab" text-anchor="middle" style="white-space: pre;" direction="ltr">source</text></g><g stroke-linecap="round"><g transform="translate(152.28494623655885 81.24563839635425) rotate(0 85.96332409223683 0.015136079996977969)"><path d="M0 0 C41.88 0.01, 83.76 0.01, 171.93 0.03 M0 0 C37.7 0.01, 75.41 0.01, 171.93 0.03" stroke="#000000" stroke-width="4" fill="none"></path></g><g transform="translate(152.28494623655885 81.24563839635425) rotate(0 85.96332409223683 0.015136079996977969)"><path d="M143.73 10.29 C150.6 7.79, 157.47 5.29, 171.93 0.03 M143.73 10.29 C149.92 8.04, 156.1 5.79, 171.93 0.03" stroke="#000000" stroke-width="4" fill="none"></path></g><g transform="translate(152.28494623655885 81.24563839635425) rotate(0 85.96332409223683 0.015136079996977969)"><path d="M143.74 -10.24 C150.6 -7.73, 157.47 -5.23, 171.93 0.03 M143.74 -10.24 C149.92 -7.98, 156.1 -5.73, 171.93 0.03" stroke="#000000" stroke-width="4" fill="none"></path></g></g><g transform="translate(178.83333333333357 41.97682119205285) rotate(0 44.5 17)"><text x="44.5" y="23" font-family="Helvetica, Segoe UI Emoji" font-size="28px" fill="#000000" text-anchor="middle" style="white-space: pre;" direction="ltr">Upload</text></g><g stroke-linecap="round"><g transform="translate(647.6233774190123 -9.201709514776553) rotate(271.0511807495438 1.0415641394919817 95.4985498834904)"><path d="M0 0 C0.45 41.14, 0.9 82.27, 2.08 191 M0 0 C0.59 53.66, 1.17 107.31, 2.08 191" stroke="#343a40" stroke-width="4" fill="none"></path></g><g transform="translate(647.6233774190123 -9.201709514776553) rotate(271.0511807495438 1.0415641394919817 95.4985498834904)"><path d="M-8.48 162.92 C-6.21 168.97, -3.93 175.01, 2.08 191 M-8.48 162.92 C-5.52 170.81, -2.55 178.7, 2.08 191" stroke="#343a40" stroke-width="4" fill="none"></path></g><g transform="translate(647.6233774190123 -9.201709514776553) rotate(271.0511807495438 1.0415641394919817 95.4985498834904)"><path d="M12.04 162.7 C9.89 168.79, 7.75 174.89, 2.08 191 M12.04 162.7 C9.24 170.65, 6.44 178.6, 2.08 191" stroke="#343a40" stroke-width="4" fill="none"></path></g></g><g transform="translate(560.6666666666667 40.31015452538645) rotate(0 80.5 17)"><text x="161" y="23" font-family="Helvetica, Segoe UI Emoji" font-size="28px" fill="#000000" text-anchor="end" style="white-space: pre;" direction="ltr">Trigger event</text></g><g stroke-linecap="round" transform="translate(748.3333333333333 28.476821192052967) rotate(0 97.49999999999994 55.00000000000003)"><path d="M6.66 7.12 C6.66 7.12, 6.66 7.12, 6.66 7.12 M6.66 7.12 C6.66 7.12, 6.66 7.12, 6.66 7.12 M3.12 17.29 C6.63 13.26, 10.13 9.23, 16.24 2.19 M3.12 17.29 C8.29 11.34, 13.46 5.39, 16.24 2.19 M2.86 23.69 C7.37 18.5, 11.88 13.31, 21.89 1.8 M2.86 23.69 C9.31 16.27, 15.76 8.85, 21.89 1.8 M3.26 29.33 C9.19 22.5, 15.12 15.68, 28.19 0.65 M3.26 29.33 C9.37 22.3, 15.47 15.27, 28.19 0.65 M2.99 35.73 C11.06 26.44, 19.13 17.16, 33.83 0.26 M2.99 35.73 C13.83 23.27, 24.66 10.81, 33.83 0.26 M3.39 41.37 C11.94 31.53, 20.49 21.7, 38.82 0.62 M3.39 41.37 C14.46 28.64, 25.53 15.9, 38.82 0.62 M3.13 47.77 C11.72 37.88, 20.31 28, 43.8 0.98 M3.13 47.77 C14.94 34.18, 26.75 20.59, 43.8 0.98 M2.87 54.17 C19.91 34.55, 36.96 14.94, 49.45 0.58 M2.87 54.17 C18.89 35.73, 34.91 17.3, 49.45 0.58 M3.26 59.81 C14.53 46.84, 25.81 33.87, 54.43 0.94 M3.26 59.81 C19.65 40.96, 36.04 22.1, 54.43 0.94 M3 66.21 C18.29 48.62, 33.57 31.04, 60.08 0.55 M3 66.21 C16.98 50.13, 30.95 34.05, 60.08 0.55 M3.39 71.85 C24.42 47.66, 45.44 23.48, 65.06 0.91 M3.39 71.85 C16.51 56.76, 29.63 41.67, 65.06 0.91 M3.13 78.25 C21.37 57.27, 39.61 36.28, 70.71 0.51 M3.13 78.25 C28.71 48.83, 54.28 19.41, 70.71 0.51 M2.87 84.65 C20.52 64.34, 38.17 44.04, 75.69 0.87 M2.87 84.65 C20.88 63.93, 38.89 43.21, 75.69 0.87 M2.61 91.04 C23.28 67.26, 43.96 43.48, 81.34 0.48 M2.61 91.04 C23.53 66.98, 44.44 42.92, 81.34 0.48 M3.66 95.93 C29.37 66.36, 55.08 36.78, 86.32 0.84 M3.66 95.93 C29.41 66.3, 55.17 36.68, 86.32 0.84 M5.37 100.07 C22.98 79.8, 40.6 59.54, 91.97 0.44 M5.37 100.07 C30.08 71.63, 54.8 43.2, 91.97 0.44 M7.73 103.44 C39 67.48, 70.26 31.51, 96.95 0.8 M7.73 103.44 C25.63 82.85, 43.54 62.25, 96.95 0.8 M10.75 106.07 C30.68 83.14, 50.6 60.22, 102.6 0.41 M10.75 106.07 C45.13 66.52, 79.51 26.97, 102.6 0.41 M13.77 108.69 C40.17 78.32, 66.57 47.95, 107.58 0.77 M13.77 108.69 C43.57 74.41, 73.37 40.13, 107.58 0.77 M17.44 110.56 C45.71 78.04, 73.99 45.51, 113.23 0.38 M17.44 110.56 C48.74 74.55, 80.05 38.55, 113.23 0.38 M22.43 110.92 C45.6 84.26, 68.78 57.61, 118.21 0.74 M22.43 110.92 C58.19 69.78, 93.96 28.64, 118.21 0.74 M28.07 110.53 C66.11 66.77, 104.14 23.02, 123.86 0.34 M28.07 110.53 C56.34 78, 84.62 45.48, 123.86 0.34 M33.71 110.13 C61.03 78.71, 88.34 47.29, 128.84 0.7 M33.71 110.13 C60.98 78.77, 88.24 47.41, 128.84 0.7 M38.7 110.49 C72.13 72.04, 105.55 33.59, 134.49 0.31 M38.7 110.49 C66.43 78.6, 94.16 46.7, 134.49 0.31 M43.69 110.85 C71.4 78.97, 99.12 47.09, 139.47 0.67 M43.69 110.85 C70.86 79.59, 98.04 48.33, 139.47 0.67 M49.33 110.46 C82.3 72.53, 115.27 34.61, 145.12 0.27 M49.33 110.46 C75.93 79.86, 102.53 49.27, 145.12 0.27 M54.32 110.82 C77.12 84.59, 99.93 58.35, 150.1 0.63 M54.32 110.82 C92.54 66.85, 130.77 22.87, 150.1 0.63 M59.96 110.42 C83.12 83.78, 106.28 57.14, 155.09 0.99 M59.96 110.42 C87.11 79.19, 114.27 47.96, 155.09 0.99 M64.95 110.78 C97.52 73.31, 130.1 35.84, 160.73 0.6 M64.95 110.78 C100.85 69.49, 136.74 28.19, 160.73 0.6 M70.59 110.39 C96.71 80.35, 122.82 50.31, 165.72 0.96 M70.59 110.39 C98.77 77.97, 126.96 45.55, 165.72 0.96 M75.58 110.75 C105.74 76.05, 135.9 41.36, 170.05 2.07 M75.58 110.75 C109.66 71.54, 143.74 32.34, 170.05 2.07 M81.22 110.36 C112.19 74.74, 143.15 39.12, 174.38 3.19 M81.22 110.36 C113.97 72.69, 146.72 35.01, 174.38 3.19 M86.21 110.72 C115.92 76.54, 145.63 42.36, 180.03 2.79 M86.21 110.72 C106.36 87.54, 126.5 64.36, 180.03 2.79 M91.85 110.32 C117.68 80.61, 143.51 50.9, 184.36 3.91 M91.85 110.32 C115.01 83.68, 138.16 57.05, 184.36 3.91 M96.84 110.68 C132.2 70, 167.57 29.32, 187.38 6.53 M96.84 110.68 C115.16 89.61, 133.47 68.54, 187.38 6.53 M102.48 110.29 C123.97 85.57, 145.46 60.85, 190.39 9.16 M102.48 110.29 C124.43 85.04, 146.38 59.79, 190.39 9.16 M107.47 110.65 C125.94 89.4, 144.41 68.16, 192.76 12.53 M107.47 110.65 C132.78 81.53, 158.09 52.41, 192.76 12.53 M113.11 110.25 C139.51 79.88, 165.92 49.51, 194.46 16.67 M113.11 110.25 C142.75 76.16, 172.38 42.07, 194.46 16.67 M118.1 110.61 C148.07 76.14, 178.03 41.66, 195.51 21.56 M118.1 110.61 C139.73 85.73, 161.36 60.85, 195.51 21.56 M123.74 110.22 C144 86.91, 164.26 63.6, 195.25 27.95 M123.74 110.22 C142.82 88.27, 161.9 66.33, 195.25 27.95 M128.73 110.58 C149.62 86.55, 170.51 62.52, 195.65 33.6 M128.73 110.58 C144.73 92.17, 160.73 73.77, 195.65 33.6 M134.37 110.18 C149.73 92.52, 165.09 74.85, 195.39 40 M134.37 110.18 C158.02 82.98, 181.66 55.78, 195.39 40 M139.36 110.54 C157.34 89.86, 175.32 69.17, 195.78 45.64 M139.36 110.54 C154.74 92.85, 170.13 75.15, 195.78 45.64 M145 110.15 C156.51 96.91, 168.02 83.67, 195.52 52.04 M145 110.15 C155.85 97.67, 166.7 85.19, 195.52 52.04 M149.99 110.51 C166.11 91.97, 182.23 73.43, 195.91 57.68 M149.99 110.51 C167.66 90.18, 185.33 69.86, 195.91 57.68 M154.98 110.87 C170.31 93.23, 185.64 75.6, 195.65 64.08 M154.98 110.87 C171.02 92.41, 187.07 73.95, 195.65 64.08 M160.62 110.47 C170.02 99.66, 179.42 88.85, 195.39 70.47 M160.62 110.47 C174.1 94.96, 187.59 79.45, 195.39 70.47 M165.61 110.83 C175.61 99.33, 185.62 87.82, 195.79 76.12 M165.61 110.83 C172.57 102.83, 179.53 94.82, 195.79 76.12 M169.94 111.95 C179.03 101.49, 188.13 91.03, 195.52 82.52 M169.94 111.95 C175.11 106, 180.28 100.06, 195.52 82.52 M175.58 111.55 C181.32 104.96, 187.05 98.36, 195.26 88.91 M175.58 111.55 C183.15 102.85, 190.72 94.14, 195.26 88.91" stroke="#d9480f" stroke-width="0.5" fill="none"></path><path d="M27.5 0 M27.5 0 C55.78 0, 84.07 0, 167.5 0 M27.5 0 C77.26 0, 127.03 0, 167.5 0 M167.5 0 C185.83 0, 195 9.17, 195 27.5 M167.5 0 C185.83 0, 195 9.17, 195 27.5 M195 27.5 C195 45.31, 195 63.11, 195 82.5 M195 27.5 C195 41.33, 195 55.17, 195 82.5 M195 82.5 C195 100.83, 185.83 110, 167.5 110 M195 82.5 C195 100.83, 185.83 110, 167.5 110 M167.5 110 C133.67 110, 99.84 110, 27.5 110 M167.5 110 C130.65 110, 93.79 110, 27.5 110 M27.5 110 C9.17 110, 0 100.83, 0 82.5 M27.5 110 C9.17 110, 0 100.83, 0 82.5 M0 82.5 C0 66.21, 0 49.92, 0 27.5 M0 82.5 C0 63.24, 0 43.98, 0 27.5 M0 27.5 C0 9.17, 9.17 0, 27.5 0 M0 27.5 C0 9.17, 9.17 0, 27.5 0" stroke="#d9480f" stroke-width="1" fill="none"></path></g><g transform="translate(788.6666666666664 65.31015452538628) rotate(0 63 21.5)"><text x="126" y="30" font-family="Helvetica, Segoe UI Emoji" font-size="36px" fill="#364fc7" text-anchor="end" style="white-space: pre;" direction="ltr">Handler</text></g><g stroke-linecap="round"><g transform="translate(808.2658977147938 292.29147374389964) rotate(0 43.92944861552479 47.84867030022613)" fill-rule="evenodd"><path d="M0 0 L0.29 86.05 L-0.11 96.06 L-0.24 95.58 L1.28 98.35 L11.05 102.07 L20.32 103.67 L46.98 104.78 L72.46 103 L80.7 100.98 L85.99 98.74 L87.78 97.17 L88.06 -1.3 L87.48 -0.34 L85.37 -2.78 L77.2 -5.93 L64.04 -7.64 L42.71 -9.08 L20.92 -7.85 L11.22 -5.92 L3.78 -3.68 L0.79 -1.61 L0 0" stroke="none" stroke-width="0" fill="#228be6" fill-rule="evenodd"></path><path d="M0 0 C0.05 14.34, 0.29 70.08, 0.29 86.05 C0.29 102.03, -0.7 93.51, 0.01 95.85 C0.72 98.19, 1.16 98.78, 4.54 100.08 C7.93 101.39, 13.24 102.88, 20.32 103.67 C27.39 104.45, 38.29 104.89, 46.98 104.78 C55.67 104.67, 65.95 104.01, 72.46 103 C78.96 101.99, 83.42 100.05, 85.99 98.74 C88.57 97.43, 87.54 97.06, 87.9 95.15 C88.26 93.24, 88.16 101.92, 88.17 87.26 C88.18 72.61, 88.07 21.82, 87.96 7.22 C87.84 -7.38, 88.51 1.62, 87.48 -0.34 C86.46 -2.31, 84.75 -3.46, 81.82 -4.57 C78.89 -5.68, 76.41 -6.27, 69.89 -7.02 C63.37 -7.77, 50.87 -8.94, 42.71 -9.08 C34.55 -9.22, 27.4 -8.75, 20.92 -7.85 C14.43 -6.95, 7.27 -4.98, 3.78 -3.68 C0.28 -2.39, 0.58 -0.67, -0.05 -0.05 C-0.68 0.56, -0.01 -0.01, 0 0 M0 0 C0.05 14.34, 0.29 70.08, 0.29 86.05 C0.29 102.03, -0.7 93.51, 0.01 95.85 C0.72 98.19, 1.16 98.78, 4.54 100.08 C7.93 101.39, 13.24 102.88, 20.32 103.67 C27.39 104.45, 38.29 104.89, 46.98 104.78 C55.67 104.67, 65.95 104.01, 72.46 103 C78.96 101.99, 83.42 100.05, 85.99 98.74 C88.57 97.43, 87.54 97.06, 87.9 95.15 C88.26 93.24, 88.16 101.92, 88.17 87.26 C88.18 72.61, 88.07 21.82, 87.96 7.22 C87.84 -7.38, 88.51 1.62, 87.48 -0.34 C86.46 -2.31, 84.75 -3.46, 81.82 -4.57 C78.89 -5.68, 76.41 -6.27, 69.89 -7.02 C63.37 -7.77, 50.87 -8.94, 42.71 -9.08 C34.55 -9.22, 27.4 -8.75, 20.92 -7.85 C14.43 -6.95, 7.27 -4.98, 3.78 -3.68 C0.28 -2.39, 0.58 -0.67, -0.05 -0.05 C-0.68 0.56, -0.01 -0.01, 0 0" stroke="#1864ab" stroke-width="1" fill="none"></path></g></g><g stroke-linecap="round"><g transform="translate(808.9532593042912 357.5816017746872) rotate(0 44.15404313987267 4.507763038741231)"><path d="M0 0 C0.39 0.65, 0.27 2.71, 2.33 3.91 C4.39 5.1, 8.46 6.31, 12.36 7.18 C16.26 8.06, 20 8.81, 25.71 9.17 C31.42 9.53, 39.07 9.53, 46.63 9.35 C54.18 9.17, 64.59 9.06, 71.04 8.08 C77.48 7.11, 82.41 4.91, 85.29 3.49 C88.17 2.07, 87.81 0.21, 88.31 -0.45 M0 0 C0.39 0.65, 0.27 2.71, 2.33 3.91 C4.39 5.1, 8.46 6.31, 12.36 7.18 C16.26 8.06, 20 8.81, 25.71 9.17 C31.42 9.53, 39.07 9.53, 46.63 9.35 C54.18 9.17, 64.59 9.06, 71.04 8.08 C77.48 7.11, 82.41 4.91, 85.29 3.49 C88.17 2.07, 87.81 0.21, 88.31 -0.45" stroke="#1864ab" stroke-width="1" fill="none"></path></g></g><g stroke-linecap="round"><g transform="translate(807.8595177922297 324.50744721261543) rotate(0 44.15404313987267 4.507763038741231)"><path d="M0 0 C0.39 0.65, 0.27 2.71, 2.33 3.91 C4.39 5.1, 8.46 6.31, 12.36 7.18 C16.26 8.06, 20 8.81, 25.71 9.17 C31.42 9.53, 39.07 9.53, 46.63 9.35 C54.18 9.17, 64.59 9.06, 71.04 8.08 C77.48 7.11, 82.41 4.91, 85.29 3.49 C88.17 2.07, 87.81 0.21, 88.31 -0.45 M0 0 C0.39 0.65, 0.27 2.71, 2.33 3.91 C4.39 5.1, 8.46 6.31, 12.36 7.18 C16.26 8.06, 20 8.81, 25.71 9.17 C31.42 9.53, 39.07 9.53, 46.63 9.35 C54.18 9.17, 64.59 9.06, 71.04 8.08 C77.48 7.11, 82.41 4.91, 85.29 3.49 C88.17 2.07, 87.81 0.21, 88.31 -0.45" stroke="#1864ab" stroke-width="1" fill="none"></path></g></g><g stroke-linecap="round" transform="translate(806.7386951060679 284.26677751680296) rotate(0 43.825373054270926 8.863351988406833)"><path d="M72 2.07 C79.19 3.29, 85.35 5.45, 86.98 7.32 C88.62 9.19, 86.47 11.65, 81.78 13.3 C77.08 14.94, 67.64 16.54, 58.81 17.19 C49.99 17.84, 37.66 17.84, 28.84 17.19 C20.01 16.54, 10.57 14.94, 5.87 13.3 C1.18 11.65, -0.96 9.19, 0.67 7.32 C2.3 5.45, 8.46 3.29, 15.65 2.07 C22.85 0.85, 34.44 0, 43.83 0 C53.22 0, 64.8 0.85, 72 2.07" stroke="none" stroke-width="0" fill="#fff"></path><path d="M72 2.07 C79.19 3.29, 85.35 5.45, 86.98 7.32 C88.62 9.19, 86.47 11.65, 81.78 13.3 C77.08 14.94, 67.64 16.54, 58.81 17.19 C49.99 17.84, 37.66 17.84, 28.84 17.19 C20.01 16.54, 10.57 14.94, 5.87 13.3 C1.18 11.65, -0.96 9.19, 0.67 7.32 C2.3 5.45, 8.46 3.29, 15.65 2.07 C22.85 0.85, 34.44 0, 43.83 0 C53.22 0, 64.8 0.85, 72 2.07" stroke="#1864ab" stroke-width="1" fill="none"></path></g><g stroke-linecap="round" transform="translate(878.2484274066486 308.8425803939365) rotate(0 6.423028523489961 6.970952181208048)"><path d="M10.55 1.63 C11.61 2.59, 12.51 4.29, 12.75 5.76 C12.99 7.23, 12.67 9.16, 11.99 10.46 C11.3 11.75, 9.91 13.01, 8.62 13.52 C7.33 14.03, 5.52 14.03, 4.23 13.52 C2.93 13.01, 1.55 11.75, 0.86 10.46 C0.17 9.16, -0.14 7.23, 0.1 5.76 C0.34 4.29, 1.24 2.59, 2.29 1.63 C3.35 0.67, 5.05 0, 6.42 0 C7.8 0, 9.5 0.67, 10.55 1.63" stroke="none" stroke-width="0" fill="#fff"></path><path d="M10.55 1.63 C11.61 2.59, 12.51 4.29, 12.75 5.76 C12.99 7.23, 12.67 9.16, 11.99 10.46 C11.3 11.75, 9.91 13.01, 8.62 13.52 C7.33 14.03, 5.52 14.03, 4.23 13.52 C2.93 13.01, 1.55 11.75, 0.86 10.46 C0.17 9.16, -0.14 7.23, 0.1 5.76 C0.34 4.29, 1.24 2.59, 2.29 1.63 C3.35 0.67, 5.05 0, 6.42 0 C7.8 0, 9.5 0.67, 10.55 1.63" stroke="#1864ab" stroke-width="1" fill="none"></path></g><g stroke-linecap="round" transform="translate(878.2484274066486 339.44503425299695) rotate(0 6.423028523489961 6.970952181208048)"><path d="M10.55 1.63 C11.61 2.59, 12.51 4.29, 12.75 5.76 C12.99 7.23, 12.67 9.16, 11.99 10.46 C11.3 11.75, 9.91 13.01, 8.62 13.52 C7.33 14.03, 5.52 14.03, 4.23 13.52 C2.93 13.01, 1.55 11.75, 0.86 10.46 C0.17 9.16, -0.14 7.23, 0.1 5.76 C0.34 4.29, 1.24 2.59, 2.29 1.63 C3.35 0.67, 5.05 0, 6.42 0 C7.8 0, 9.5 0.67, 10.55 1.63" stroke="none" stroke-width="0" fill="#fff"></path><path d="M10.55 1.63 C11.61 2.59, 12.51 4.29, 12.75 5.76 C12.99 7.23, 12.67 9.16, 11.99 10.46 C11.3 11.75, 9.91 13.01, 8.62 13.52 C7.33 14.03, 5.52 14.03, 4.23 13.52 C2.93 13.01, 1.55 11.75, 0.86 10.46 C0.17 9.16, -0.14 7.23, 0.1 5.76 C0.34 4.29, 1.24 2.59, 2.29 1.63 C3.35 0.67, 5.05 0, 6.42 0 C7.8 0, 9.5 0.67, 10.55 1.63" stroke="#1864ab" stroke-width="1" fill="none"></path></g><g stroke-linecap="round" transform="translate(878.2484274066486 372.7058354274936) rotate(0 6.423028523489961 6.970952181208048)"><path d="M10.55 1.63 C11.61 2.59, 12.51 4.29, 12.75 5.76 C12.99 7.23, 12.67 9.16, 11.99 10.46 C11.3 11.75, 9.91 13.01, 8.62 13.52 C7.33 14.03, 5.52 14.03, 4.23 13.52 C2.93 13.01, 1.55 11.75, 0.86 10.46 C0.17 9.16, -0.14 7.23, 0.1 5.76 C0.34 4.29, 1.24 2.59, 2.29 1.63 C3.35 0.67, 5.05 0, 6.42 0 C7.8 0, 9.5 0.67, 10.55 1.63" stroke="none" stroke-width="0" fill="#fff"></path><path d="M10.55 1.63 C11.61 2.59, 12.51 4.29, 12.75 5.76 C12.99 7.23, 12.67 9.16, 11.99 10.46 C11.3 11.75, 9.91 13.01, 8.62 13.52 C7.33 14.03, 5.52 14.03, 4.23 13.52 C2.93 13.01, 1.55 11.75, 0.86 10.46 C0.17 9.16, -0.14 7.23, 0.1 5.76 C0.34 4.29, 1.24 2.59, 2.29 1.63 C3.35 0.67, 5.05 0, 6.42 0 C7.8 0, 9.5 0.67, 10.55 1.63" stroke="#1864ab" stroke-width="1" fill="none"></path></g><g stroke-linecap="round"><g transform="translate(846.199157625197 140.14348785871954) rotate(0 1.0670878540682907 75.83333333333343)"><path d="M0 0 C0.69 49.18, 1.38 98.35, 2.13 151.67 M0 0 C0.84 59.6, 1.68 119.19, 2.13 151.67" stroke="#364fc7" stroke-width="4" fill="none"></path></g><g transform="translate(846.199157625197 140.14348785871954) rotate(0 1.0670878540682907 75.83333333333343)"><path d="M-8.52 123.62 C-5.07 132.72, -1.61 141.81, 2.13 151.67 M-8.52 123.62 C-4.33 134.64, -0.15 145.66, 2.13 151.67" stroke="#364fc7" stroke-width="4" fill="none"></path></g><g transform="translate(846.199157625197 140.14348785871954) rotate(0 1.0670878540682907 75.83333333333343)"><path d="M12 123.33 C8.8 132.52, 5.6 141.71, 2.13 151.67 M12 123.33 C8.12 134.47, 4.25 145.6, 2.13 151.67" stroke="#364fc7" stroke-width="4" fill="none"></path></g></g><g transform="translate(763.6666666666665 410.31015452538645) rotate(0 101.50000000000006 33.5)"><text x="101.5" y="23.5" font-family="Helvetica, Segoe UI Emoji" font-size="28px" fill="#343a40" text-anchor="middle" style="white-space: pre;" direction="ltr">Comprehensive </text><text x="101.5" y="57" font-family="Helvetica, Segoe UI Emoji" font-size="28px" fill="#343a40" text-anchor="middle" style="white-space: pre;" direction="ltr">Catalog</text></g><g transform="translate(867.3333333333334 191.97682119205308) rotate(0 121 17)"><text x="121" y="23" font-family="Helvetica, Segoe UI Emoji" font-size="28px" fill="#000000" text-anchor="middle" style="white-space: pre;" direction="ltr">Populate meta-data</text></g></svg>