<?xml version="1.0" standalone="no"?>
<!DOCTYPE svg PUBLIC "-//W3C//DTD SVG 1.1//EN" "http://www.w3.org/Graphics/SVG/1.1/DTD/svg11.dtd">
<svg version="1.1" xmlns="http://www.w3.org/2000/svg" viewBox="0 0 3070.0000000000005 1338.636363636363" width="3070" height="1338.6363525390625">
  <!-- svg-source:excalidraw -->
  
  <defs>
    <style>
      @font-face {
        font-family: "Virgil";
        src: url("https://excalidraw.com/Virgil.woff2");
      }
      @font-face {
        font-family: "Cascadia";
        src: url("https://excalidraw.com/Cascadia.woff2");
      }
    </style>
  </defs>
  <rect x="0" y="0" width="3070.0000000000005" height="1338.636363636363" fill="#ffffff"/><g stroke-linecap="round" transform="translate(85 65) rotate(0 1427.5000000000002 227.50000000000006)"><path d="M0 0 C611.56 0, 1223.13 0, 2855 0 M0 0 C1029.01 0, 2058.02 0, 2855 0 M2855 0 C2855 156.78, 2855 313.56, 2855 455 M2855 0 C2855 138.78, 2855 277.56, 2855 455 M2855 455 C1831.56 455, 808.12 455, 0 455 M2855 455 C1742.56 455, 630.12 455, 0 455 M0 455 C0 337.49, 0 219.99, 0 0 M0 455 C0 311.89, 0 168.78, 0 0" stroke="#000000" stroke-width="4" fill="none"/></g><g stroke-opacity="0.7" fill-opacity="0.7" stroke-linecap="round" transform="translate(10 10) rotate(0 1519.9999999999998 520.0000000000005)"><path d="M0 0 C650.55 0, 1301.1 0, 3040 0 M3040 0 C3040 233.51, 3040 467.02, 3040 1040 M3040 1040 C2187.88 1040, 1335.75 1040, 0 1040 M0 1040 C0 636.96, 0 233.93, 0 0" stroke="#000000" stroke-width="4.5" fill="none" stroke-dasharray="1.5 10"/></g><g stroke-opacity="0.5" fill-opacity="0.5" stroke-linecap="round" transform="translate(16.000000000003183 1098.0303030303025) rotate(0 1521.9999999999986 115.30303030303025)"><path d="M57.65 0 L2993.33 0.23 L3005.94 2.03 L3011.57 3.6 L3021.48 8.11 L3025.76 11.03 L3029.59 14.41 L3035.89 22.52 L3040.4 32.43 L3043.1 44.14 L3044 57.65 L3043.77 179.94 L3043.1 186.47 L3040.4 198.18 L3035.89 208.09 L3029.59 216.19 L3021.48 222.5 L3011.57 227 L2999.86 229.71 L2986.35 230.61 L50.67 230.38 L44.14 229.71 L32.43 227 L22.52 222.5 L14.41 216.19 L11.03 212.36 L5.63 203.36 L3.6 198.18 L0.9 186.47 L0 172.95 L0 57.65 L0.9 44.14 L3.6 32.43 L8.11 22.52 L14.41 14.41 L22.52 8.11 L32.43 3.6 L44.14 0.9 L57.65 0" stroke="none" stroke-width="0" fill="#15aabf"/><path d="M57.65 0 M57.65 0 C1164.39 0, 2271.13 0, 2986.35 0 M2986.35 0 C3024.78 0, 3044 19.22, 3044 57.65 M3044 57.65 C3044 96.84, 3044 136.03, 3044 172.95 M3044 172.95 C3044 211.39, 3024.78 230.61, 2986.35 230.61 M2986.35 230.61 C2271.65 230.61, 1556.94 230.61, 57.65 230.61 M57.65 230.61 C19.22 230.61, 0 211.39, 0 172.95 M0 172.95 C0 147.93, 0 122.9, 0 57.65 M0 57.65 C0 19.22, 19.22 0, 57.65 0" stroke="#000000" stroke-width="4.5" fill="none" stroke-dasharray="8 12"/></g><g stroke-opacity="0.8" fill-opacity="0.8" transform="translate(1105.1749190055502 1166.8156399351187) rotate(0 250.5883896359462 50.41718596261069)"><text x="250.5883896359462" y="69.83437192522138" font-family="Helvetica, Segoe UI Emoji" font-size="84.06880914721117px" fill="#000000" text-anchor="middle" style="white-space: pre;" direction="ltr">Orchestrating</text></g><g stroke-linecap="round"><g transform="translate(1703.7548189197628 1216.2316296618253) rotate(0 0.9779461694283782 1.131009193779164)"><path d="M-0.11 -0.1 C0.41 -14.28, 0.93 -28.45, 1.23 -36.82 M1.23 -36.82 C0.88 -45.97, 0.52 -55.11, 0.33 -59.92 M0.33 -59.92 C0.82 -60.46, 1.32 -61.01, 2.09 -61.86 M2.09 -61.86 C3.11 -62.12, 4.13 -62.38, 5.2 -62.65 M5.2 -62.65 C9.08 -62.11, 12.96 -61.56, 17.5 -60.93 M17.5 -60.93 C22.7 -59.29, 27.91 -57.65, 31.01 -56.67 M31.01 -56.67 C33.84 -55.01, 36.67 -53.34, 43.65 -49.24 M43.65 -49.24 C45.87 -47.09, 48.09 -44.93, 53.6 -39.57 M53.6 -39.57 C55.65 -36.37, 57.7 -33.18, 60.1 -29.43 M60.1 -29.43 C61.14 -26.66, 62.19 -23.9, 64.51 -17.77 M64.51 -17.77 C65.89 -11.13, 67.26 -4.48, 68 -0.92 M68 -0.92 C66.93 5.85, 65.87 12.61, 64.9 18.78 M64.9 18.78 C62.78 23.27, 60.67 27.77, 57.34 34.86 M57.34 34.86 C53.82 39.4, 50.29 43.95, 47.54 47.5 M47.54 47.5 C43.02 50.59, 38.51 53.69, 33.5 57.12 M33.5 57.12 C27.67 59.65, 21.83 62.18, 18.36 63.68 M18.36 63.68 C11.91 64.08, 5.46 64.48, -1.61 64.91 M-1.61 64.91 C-9.33 63.2, -17.05 61.49, -21.56 60.49 M-21.56 60.49 C-25.82 58.24, -30.08 56, -38.16 51.74 M-38.16 51.74 C-43.45 47.36, -48.74 42.98, -52.31 40.02 M-52.31 40.02 C-55.66 34.15, -59.01 28.28, -61.04 24.71 M-61.04 24.71 C-62.96 18.27, -64.87 11.83, -66.04 7.91 M-66.04 7.91 C-65.59 2.03, -65.14 -3.85, -64.84 -7.86 M-64.84 -7.86 C-63.18 -13.03, -61.52 -18.19, -58.48 -27.68 M-58.48 -27.68 C-56.4 -30.88, -54.32 -34.08, -49.03 -42.23 M-49.03 -42.23 C-47.72 -42.38, -46.42 -42.52, -43.6 -42.82 M-43.6 -42.82 C-37.39 -37.01, -31.18 -31.2, -26.6 -26.91 M-26.6 -26.91 C-17.93 -18.14, -9.26 -9.37, -0.11 -0.1" stroke="#343a40" stroke-width="4.5" fill="none" stroke-dasharray="8 12"/></g></g><g stroke-linecap="round" transform="translate(113.65114403104963 125) rotate(0 250 167.5)"><path d="M0 0 C183.48 0, 366.96 0, 500 0 M0 0 C167.98 0, 335.95 0, 500 0 M500 0 C500 79.38, 500 158.76, 500 335 M500 0 C500 91.2, 500 182.4, 500 335 M500 335 C308.22 335, 116.44 335, 0 335 M500 335 C388.72 335, 277.45 335, 0 335 M0 335 C0 202.12, 0 69.23, 0 0 M0 335 C0 225.47, 0 115.94, 0 0" stroke="#000000" stroke-width="4" fill="none"/></g><g transform="translate(173.31393472872423 200) rotate(0 191.5 103)"><text x="191.5" y="71" font-family="Helvetica, Segoe UI Emoji" font-size="86.23255813953489px" fill="#000000" text-anchor="middle" style="white-space: pre;" direction="ltr">Cleansing</text><text x="191.5" y="174" font-family="Helvetica, Segoe UI Emoji" font-size="86.23255813953489px" fill="#000000" text-anchor="middle" style="white-space: pre;" direction="ltr">images</text></g><g stroke-linecap="round" transform="translate(668.6511440310496 125) rotate(0 250 167.5)"><path d="M0 0 C107.41 0, 214.81 0, 500 0 M0 0 C126.2 0, 252.4 0, 500 0 M500 0 C500 78.64, 500 157.28, 500 335 M500 0 C500 126.14, 500 252.28, 500 335 M500 335 C348.88 335, 197.75 335, 0 335 M500 335 C389.1 335, 278.2 335, 0 335 M0 335 C0 227.32, 0 119.64, 0 0 M0 335 C0 251.8, 0 168.6, 0 0" stroke="#000000" stroke-width="4" fill="none"/></g><g transform="translate(738.8139347287242 200) rotate(0 181 103)"><text x="181" y="71" font-family="Helvetica, Segoe UI Emoji" font-size="86.23255813953489px" fill="#000000" text-anchor="middle" style="white-space: pre;" direction="ltr">First</text><text x="181" y="174" font-family="Helvetica, Segoe UI Emoji" font-size="86.23255813953489px" fill="#000000" text-anchor="middle" style="white-space: pre;" direction="ltr">Anotation</text></g><g stroke-linecap="round" transform="translate(1233.6511440310496 125) rotate(0 250 167.5)"><path d="M0 0 C136.96 0, 273.91 0, 500 0 M0 0 C119 0, 238.01 0, 500 0 M500 0 C500 116.95, 500 233.9, 500 335 M500 0 C500 89.07, 500 178.14, 500 335 M500 335 C358.68 335, 217.35 335, 0 335 M500 335 C392.74 335, 285.48 335, 0 335 M0 335 C0 239.75, 0 144.5, 0 0 M0 335 C0 247.79, 0 160.58, 0 0" stroke="#000000" stroke-width="4" fill="none"/></g><g transform="translate(1303.8139347287242 200) rotate(0 181 103)"><text x="181" y="71" font-family="Helvetica, Segoe UI Emoji" font-size="86.23255813953489px" fill="#000000" text-anchor="middle" style="white-space: pre;" direction="ltr">Second</text><text x="181" y="174" font-family="Helvetica, Segoe UI Emoji" font-size="86.23255813953489px" fill="#000000" text-anchor="middle" style="white-space: pre;" direction="ltr">Anotation</text></g><g stroke-linecap="round" transform="translate(2358.65114403105 125) rotate(0 250 167.5)"><path d="M0 0 C164.37 0, 328.73 0, 500 0 M0 0 C160.61 0, 321.23 0, 500 0 M500 0 C500 129, 500 258, 500 335 M500 0 C500 83.66, 500 167.33, 500 335 M500 335 C357.17 335, 214.35 335, 0 335 M500 335 C302.09 335, 104.18 335, 0 335 M0 335 C0 224.32, 0 113.63, 0 0 M0 335 C0 201.92, 0 68.83, 0 0" stroke="#000000" stroke-width="4" fill="none"/></g><g transform="translate(2428.8139347287247 200) rotate(0 181 103)"><text x="181" y="71" font-family="Helvetica, Segoe UI Emoji" font-size="86.23255813953489px" fill="#000000" text-anchor="middle" style="white-space: pre;" direction="ltr">Third</text><text x="181" y="174" font-family="Helvetica, Segoe UI Emoji" font-size="86.23255813953489px" fill="#000000" text-anchor="middle" style="white-space: pre;" direction="ltr">Anotation</text></g><g stroke-linecap="round" transform="translate(1848.6511440310496 604.6670658391904) rotate(0 250.00000000000023 167.5)"><path d="M83.75 0 M83.75 0 C201.75 0, 319.75 0, 416.25 0 M416.25 0 C472.08 0, 500 27.92, 500 83.75 M500 83.75 C500 132.2, 500 180.65, 500 251.25 M500 251.25 C500 307.08, 472.08 335, 416.25 335 M416.25 335 C342.84 335, 269.43 335, 83.75 335 M83.75 335 C27.92 335, 0 307.08, 0 251.25 M0 251.25 C0 199.84, 0 148.44, 0 83.75 M0 83.75 C0 27.92, 27.92 0, 83.75 0" stroke="#1864ab" stroke-width="4.5" fill="none" stroke-dasharray="8 12"/></g><g transform="translate(1915.3139347287247 624.6670658391904) rotate(0 179.5 155)"><text x="179.5" y="71.33333333333333" font-family="Helvetica, Segoe UI Emoji" font-size="86.23255813953489px" fill="#1864ab" text-anchor="middle" style="white-space: pre;" direction="ltr">Find and </text><text x="179.5" y="174.66666666666666" font-family="Helvetica, Segoe UI Emoji" font-size="86.23255813953489px" fill="#1864ab" text-anchor="middle" style="white-space: pre;" direction="ltr">resolve </text><text x="179.5" y="278" font-family="Helvetica, Segoe UI Emoji" font-size="86.23255813953489px" fill="#1864ab" text-anchor="middle" style="white-space: pre;" direction="ltr">Conflict</text></g><g stroke-linecap="round" transform="translate(1258.6511440310496 604.6670658391904) rotate(0 250 167.5)"><path d="M83.75 0 M83.75 0 C175.17 0, 266.58 0, 416.25 0 M416.25 0 C472.08 0, 500 27.92, 500 83.75 M500 83.75 C500 137.48, 500 191.22, 500 251.25 M500 251.25 C500 307.08, 472.08 335, 416.25 335 M416.25 335 C332.41 335, 248.57 335, 83.75 335 M83.75 335 C27.92 335, 0 307.08, 0 251.25 M0 251.25 C0 197.46, 0 143.66, 0 83.75 M0 83.75 C0 27.92, 27.92 0, 83.75 0" stroke="#1864ab" stroke-width="4.5" fill="none" stroke-dasharray="8 12"/></g><g transform="translate(1272.8139347287242 679.6670658391904) rotate(0 222 103)"><text x="222" y="71" font-family="Helvetica, Segoe UI Emoji" font-size="86.23255813953489px" fill="#1864ab" text-anchor="middle" style="white-space: pre;" direction="ltr">Export </text><text x="222" y="174" font-family="Helvetica, Segoe UI Emoji" font-size="86.23255813953489px" fill="#1864ab" text-anchor="middle" style="white-space: pre;" direction="ltr">annotations</text></g><g stroke-linecap="round" transform="translate(708.6511440310496 604.6670658391904) rotate(0 250 167.5)"><path d="M83.75 0 M83.75 0 C173.51 0, 263.26 0, 416.25 0 M416.25 0 C472.08 0, 500 27.92, 500 83.75 M500 83.75 C500 144.14, 500 204.52, 500 251.25 M500 251.25 C500 307.08, 472.08 335, 416.25 335 M416.25 335 C340.22 335, 264.18 335, 83.75 335 M83.75 335 C27.92 335, 0 307.08, 0 251.25 M0 251.25 C0 190.33, 0 129.4, 0 83.75 M0 83.75 C0 27.92, 27.92 0, 83.75 0" stroke="#1864ab" stroke-width="4.5" fill="none" stroke-dasharray="8 12"/></g><g transform="translate(731.8766829634988 689.6670658391904) rotate(0 223 96)"><text x="223" y="66" font-family="Helvetica, Segoe UI Emoji" font-size="79.95348837209298px" fill="#1864ab" text-anchor="middle" style="white-space: pre;" direction="ltr">Export clean</text><text x="223" y="162" font-family="Helvetica, Segoe UI Emoji" font-size="79.95348837209298px" fill="#1864ab" text-anchor="middle" style="white-space: pre;" direction="ltr">images</text></g><g stroke-linecap="round" transform="translate(128.65114403104963 604.6670658391904) rotate(0 250 167.5)"><path d="M83.75 0 M83.75 0 C197.38 0, 311.02 0, 416.25 0 M416.25 0 C472.08 0, 500 27.92, 500 83.75 M500 83.75 C500 122.25, 500 160.74, 500 251.25 M500 251.25 C500 307.08, 472.08 335, 416.25 335 M416.25 335 C301.52 335, 186.79 335, 83.75 335 M83.75 335 C27.92 335, 0 307.08, 0 251.25 M0 251.25 C0 193.6, 0 135.96, 0 83.75 M0 83.75 C0 27.92, 27.92 0, 83.75 0" stroke="#1864ab" stroke-width="4.5" fill="none" stroke-dasharray="8 12"/></g><g transform="translate(205.81393472872423 679.6670658391904) rotate(0 164 103)"><text x="164" y="71" font-family="Helvetica, Segoe UI Emoji" font-size="86.23255813953489px" fill="#1864ab" text-anchor="middle" style="white-space: pre;" direction="ltr">Load </text><text x="164" y="174" font-family="Helvetica, Segoe UI Emoji" font-size="86.23255813953489px" fill="#1864ab" text-anchor="middle" style="white-space: pre;" direction="ltr">raw data</text></g><g stroke-linecap="round" transform="translate(2443.65114403105 604.6670658391904) rotate(0 250 167.5)"><path d="M83.75 0 M83.75 0 C168.26 0, 252.76 0, 416.25 0 M416.25 0 C472.08 0, 500 27.92, 500 83.75 M500 83.75 C500 118.69, 500 153.62, 500 251.25 M500 251.25 C500 307.08, 472.08 335, 416.25 335 M416.25 335 C329.94 335, 243.62 335, 83.75 335 M83.75 335 C27.92 335, 0 307.08, 0 251.25 M0 251.25 C0 200.92, 0 150.6, 0 83.75 M0 83.75 C0 27.92, 27.92 0, 83.75 0" stroke="#1864ab" stroke-width="4.5" fill="none" stroke-dasharray="8 12"/></g><g transform="translate(2460.8139347287247 649.6670658391904) rotate(0 234 103)"><text x="234" y="71" font-family="Helvetica, Segoe UI Emoji" font-size="86.23255813953489px" fill="#1864ab" text-anchor="middle" style="white-space: pre;" direction="ltr">Export </text><text x="234" y="174" font-family="Helvetica, Segoe UI Emoji" font-size="86.23255813953489px" fill="#1864ab" text-anchor="middle" style="white-space: pre;" direction="ltr"> annotations</text></g><g stroke-linecap="round" transform="translate(68.65114403104963 567.1670658391904) rotate(0 1455.0000000000007 205)"><path d="M102.5 0 M102.5 0 C802.95 0, 1503.4 0, 2807.5 0 M2807.5 0 C2875.83 0, 2910 34.17, 2910 102.5 M2910 102.5 C2910 171.74, 2910 240.99, 2910 307.5 M2910 307.5 C2910 375.83, 2875.83 410, 2807.5 410 M2807.5 410 C2083.3 410, 1359.09 410, 102.5 410 M102.5 410 C34.17 410, 0 375.83, 0 307.5 M0 307.5 C0 227.34, 0 147.19, 0 102.5 M0 102.5 C0 34.17, 34.17 0, 102.5 0" stroke="#343a40" stroke-width="4.5" fill="none" stroke-dasharray="1.5 10"/></g><g stroke-linecap="round"><g transform="translate(308.6511440310496 612.1670658391904) rotate(0 40 -80)"><path d="M0 0 C16.47 -32.94, 32.94 -65.88, 80 -160 M0 0 C30.36 -60.73, 60.73 -121.45, 80 -160" stroke="#000000" stroke-width="4" fill="none"/></g><g transform="translate(308.6511440310496 612.1670658391904) rotate(0 40 -80)"><path d="M76.57 -130.2 C77.28 -136.33, 77.98 -142.47, 80 -160 M76.57 -130.2 C77.87 -141.51, 79.17 -152.82, 80 -160" stroke="#000000" stroke-width="4" fill="none"/></g><g transform="translate(308.6511440310496 612.1670658391904) rotate(0 40 -80)"><path d="M58.22 -139.37 C62.7 -143.62, 67.19 -147.87, 80 -160 M58.22 -139.37 C66.48 -147.2, 74.75 -155.03, 80 -160" stroke="#000000" stroke-width="4" fill="none"/></g></g><g stroke-linecap="round"><g transform="translate(548.6511440310496 462.1670658391904) rotate(0 90 77.5)"><path d="M0 0 C42.09 36.25, 84.19 72.49, 180 155 M0 0 C36.67 31.57, 73.33 63.15, 180 155" stroke="#087f5b" stroke-width="4" fill="none"/></g><g transform="translate(548.6511440310496 462.1670658391904) rotate(0 90 77.5)"><path d="M151.94 144.38 C158.5 146.86, 165.07 149.35, 180 155 M151.94 144.38 C157.66 146.54, 163.37 148.71, 180 155" stroke="#087f5b" stroke-width="4" fill="none"/></g><g transform="translate(548.6511440310496 462.1670658391904) rotate(0 90 77.5)"><path d="M165.33 128.83 C168.76 134.95, 172.19 141.07, 180 155 M165.33 128.83 C168.32 134.16, 171.31 139.49, 180 155" stroke="#087f5b" stroke-width="4" fill="none"/></g></g><g stroke-linecap="round"><g transform="translate(913.6511440310496 597.1670658391904) rotate(0 0 -62.50000000000001)"><path d="M0 0 C0 -41.11, 0 -82.22, 0 -125 M0 0 C0 -38.17, 0 -76.33, 0 -125" stroke="#000000" stroke-width="4" fill="none"/></g><g transform="translate(913.6511440310496 597.1670658391904) rotate(0 0 -62.50000000000001)"><path d="M10.26 -96.81 C6.89 -106.08, 3.51 -115.35, 0 -125 M10.26 -96.81 C7.13 -105.42, 3.99 -114.02, 0 -125" stroke="#000000" stroke-width="4" fill="none"/></g><g transform="translate(913.6511440310496 597.1670658391904) rotate(0 0 -62.50000000000001)"><path d="M-10.26 -96.81 C-6.89 -106.08, -3.51 -115.35, 0 -125 M-10.26 -96.81 C-7.13 -105.42, -3.99 -114.02, 0 -125" stroke="#000000" stroke-width="4" fill="none"/></g></g><g stroke-linecap="round"><g transform="translate(1098.6511440310496 597.1670658391904) rotate(0 127.5 -65)"><path d="M0 0 C82.49 -42.05, 164.98 -84.11, 255 -130 M0 0 C65.82 -33.55, 131.64 -67.11, 255 -130" stroke="#000000" stroke-width="4" fill="none"/></g><g transform="translate(1098.6511440310496 597.1670658391904) rotate(0 127.5 -65)"><path d="M234.54 -108.05 C241.16 -115.15, 247.78 -122.25, 255 -130 M234.54 -108.05 C239.82 -113.72, 245.1 -119.38, 255 -130" stroke="#000000" stroke-width="4" fill="none"/></g><g transform="translate(1098.6511440310496 597.1670658391904) rotate(0 127.5 -65)"><path d="M225.22 -126.34 C234.86 -127.52, 244.49 -128.71, 255 -130 M225.22 -126.34 C232.91 -127.28, 240.6 -128.23, 255 -130" stroke="#000000" stroke-width="4" fill="none"/></g></g><g stroke-linecap="round"><g transform="translate(1123.6511440310496 462.1670658391904) rotate(0 105 72.5)"><path d="M0 0 C46.81 32.32, 93.62 64.65, 210 145 M0 0 C83.38 57.57, 166.76 115.14, 210 145" stroke="#0b7285" stroke-width="4" fill="none"/></g><g transform="translate(1123.6511440310496 462.1670658391904) rotate(0 105 72.5)"><path d="M180.97 137.43 C187.44 139.11, 193.91 140.8, 210 145 M180.97 137.43 C192.5 140.43, 204.02 143.44, 210 145" stroke="#0b7285" stroke-width="4" fill="none"/></g><g transform="translate(1123.6511440310496 462.1670658391904) rotate(0 105 72.5)"><path d="M192.63 120.54 C196.5 125.99, 200.38 131.44, 210 145 M192.63 120.54 C199.53 130.25, 206.42 139.96, 210 145" stroke="#0b7285" stroke-width="4" fill="none"/></g></g><g stroke-linecap="round"><g transform="translate(1490.9472627338 467.1670658391904) rotate(0 -1.5819858418799413 62.5)"><path d="M0 0 C-0.68 26.87, -1.36 53.74, -3.16 125 M0 0 C-0.94 37.02, -1.87 74.05, -3.16 125" stroke="#087f5b" stroke-width="4" fill="none"/></g><g transform="translate(1490.9472627338 467.1670658391904) rotate(0 -1.5819858418799413 62.5)"><path d="M-12.71 96.56 C-10.66 102.67, -8.6 108.79, -3.16 125 M-12.71 96.56 C-9.88 104.98, -7.05 113.41, -3.16 125" stroke="#087f5b" stroke-width="4" fill="none"/></g><g transform="translate(1490.9472627338 467.1670658391904) rotate(0 -1.5819858418799413 62.5)"><path d="M7.81 97.08 C5.45 103.08, 3.09 109.08, -3.16 125 M7.81 97.08 C4.56 105.35, 1.31 113.62, -3.16 125" stroke="#087f5b" stroke-width="4" fill="none"/></g></g><g stroke-linecap="round"><g transform="translate(1773.6511440310496 771.8946990157949) rotate(0 32.5 0.2723668233955152)"><path d="M0 0 C24.66 0.21, 49.32 0.41, 65 0.54" stroke="#087f5b" stroke-width="4.5" fill="none" stroke-dasharray="8 12"/></g><g transform="translate(1773.6511440310496 771.8946990157949) rotate(0 32.5 0.2723668233955152)"><path d="M36.72 10.57 C47.45 6.77, 58.18 2.96, 65 0.54" stroke="#087f5b" stroke-width="4.5" fill="none"/></g><g transform="translate(1773.6511440310496 771.8946990157949) rotate(0 32.5 0.2723668233955152)"><path d="M36.9 -9.95 C47.56 -5.97, 58.22 -1.99, 65 0.54" stroke="#087f5b" stroke-width="4.5" fill="none"/></g></g><g stroke-linecap="round"><g transform="translate(2348.651144031049 772.1670658391904) rotate(0 45 0)"><path d="M0 0 C20.53 0, 41.06 0, 90 0" stroke="#087f5b" stroke-width="4.5" fill="none" stroke-dasharray="8 12"/></g><g transform="translate(2348.651144031049 772.1670658391904) rotate(0 45 0)"><path d="M61.81 10.26 C68.24 7.92, 74.67 5.58, 90 0" stroke="#087f5b" stroke-width="4.5" fill="none"/></g><g transform="translate(2348.651144031049 772.1670658391904) rotate(0 45 0)"><path d="M61.81 -10.26 C68.24 -7.92, 74.67 -5.58, 90 0" stroke="#087f5b" stroke-width="4.5" fill="none"/></g></g><g stroke-linecap="round"><g transform="translate(2153.6511440310496 597.1670658391904) rotate(0 104.99999999999977 -67.5)"><path d="M0 0 C71.68 -46.08, 143.37 -92.16, 210 -135 M0 0 C63.05 -40.54, 126.11 -81.07, 210 -135" stroke="#000000" stroke-width="4" fill="none"/></g><g transform="translate(2153.6511440310496 597.1670658391904) rotate(0 104.99999999999977 -67.5)"><path d="M191.84 -111.12 C198.04 -119.27, 204.24 -127.42, 210 -135 M191.84 -111.12 C197.29 -118.29, 202.74 -125.46, 210 -135" stroke="#000000" stroke-width="4" fill="none"/></g><g transform="translate(2153.6511440310496 597.1670658391904) rotate(0 104.99999999999977 -67.5)"><path d="M180.74 -128.39 C190.73 -130.64, 200.71 -132.9, 210 -135 M180.74 -128.39 C189.52 -130.37, 198.31 -132.36, 210 -135" stroke="#000000" stroke-width="4" fill="none"/></g></g><g stroke-linecap="round"><g transform="translate(2613.65114403105 467.1670658391904) rotate(0 0 65)"><path d="M0 0 C0 44.04, 0 88.07, 0 130 M0 0 C0 40.98, 0 81.97, 0 130" stroke="#087f5b" stroke-width="4" fill="none"/></g><g transform="translate(2613.65114403105 467.1670658391904) rotate(0 0 65)"><path d="M-10.26 101.81 C-6.78 111.36, -3.31 120.91, 0 130 M-10.26 101.81 C-7.03 110.7, -3.79 119.58, 0 130" stroke="#087f5b" stroke-width="4" fill="none"/></g><g transform="translate(2613.65114403105 467.1670658391904) rotate(0 0 65)"><path d="M10.26 101.81 C6.78 111.36, 3.31 120.91, 0 130 M10.26 101.81 C7.03 110.7, 3.79 119.58, 0 130" stroke="#087f5b" stroke-width="4" fill="none"/></g></g></svg>