<svg version="1.1" xmlns="http://www.w3.org/2000/svg" viewBox="0 0 739.6399709595978 362.5" width="1479.2799419191956" height="725">
  <!-- svg-source:excalidraw -->
  
  <defs>
    <style class="style-fonts">
      @font-face {
        font-family: "Virgil";
        src: url("https://excalidraw.com/Virgil.woff2");
      }
      @font-face {
        font-family: "Cascadia";
        src: url("https://excalidraw.com/Cascadia.woff2");
      }
    </style>
  </defs>
  <rect x="0" y="0" width="739.6399709595978" height="362.5" fill="#ffffff"></rect><g transform="translate(560.339983166629 215.90036753146296) rotate(0 39.5 13)"><text x="39.5" y="18" font-family="Virgil, Segoe UI Emoji" font-size="20px" fill="#495057" text-anchor="middle" style="white-space: pre;" direction="ltr">Standby</text></g><g stroke-linecap="round" transform="translate(549.2995626344025 99.91487769863852) rotate(0 50.540420532226506 50.54042053222656)"><path d="M0 0 C0 0, 0 0, 0 0 M0 0 C0 0, 0 0, 0 0 M-0.26 6.4 C1.43 4.45, 3.13 2.5, 4.99 0.36 M-0.26 6.4 C1.17 4.75, 2.6 3.1, 4.99 0.36 M0.13 12.04 C3.7 7.94, 7.27 3.83, 10.63 -0.03 M0.13 12.04 C3.53 8.13, 6.93 4.22, 10.63 -0.03 M-0.13 18.44 C4.97 12.57, 10.07 6.71, 15.62 0.33 M-0.13 18.44 C3.53 14.24, 7.18 10.03, 15.62 0.33 M0.27 24.08 C6.44 16.97, 12.62 9.87, 21.26 -0.07 M0.27 24.08 C8.26 14.89, 16.25 5.69, 21.26 -0.07 M0 30.48 C7.86 21.45, 15.71 12.41, 26.25 0.29 M0 30.48 C6.13 23.44, 12.25 16.4, 26.25 0.29 M-0.26 36.88 C7.66 27.77, 15.57 18.67, 31.89 -0.1 M-0.26 36.88 C6.28 29.36, 12.81 21.84, 31.89 -0.1 M0.14 42.52 C12.39 28.42, 24.64 14.33, 36.88 0.26 M0.14 42.52 C12 28.88, 23.85 15.24, 36.88 0.26 M-0.12 48.92 C11.88 35.11, 23.89 21.29, 42.52 -0.14 M-0.12 48.92 C13.14 33.66, 26.41 18.39, 42.52 -0.14 M0.27 54.56 C17.47 34.78, 34.66 15, 47.51 0.22 M0.27 54.56 C11.78 41.32, 23.3 28.07, 47.51 0.22 M0.01 60.96 C12.72 46.33, 25.44 31.71, 53.15 -0.17 M0.01 60.96 C11.74 47.46, 23.48 33.96, 53.15 -0.17 M-0.25 67.36 C22.01 41.75, 44.27 16.14, 58.14 0.19 M-0.25 67.36 C13.54 51.5, 27.32 35.64, 58.14 0.19 M0.14 73 C19.95 50.21, 39.76 27.42, 63.78 -0.21 M0.14 73 C15.78 55.01, 31.42 37.02, 63.78 -0.21 M-0.12 79.4 C15.64 61.27, 31.4 43.14, 68.77 0.15 M-0.12 79.4 C16.2 60.63, 32.51 41.86, 68.77 0.15 M0.28 85.04 C18.28 64.33, 36.29 43.62, 74.41 -0.24 M0.28 85.04 C22.24 59.78, 44.2 34.51, 74.41 -0.24 M0.01 91.44 C16.16 72.87, 32.3 54.29, 79.4 0.12 M0.01 91.44 C22.21 65.91, 44.4 40.38, 79.4 0.12 M-0.25 97.84 C28.09 65.23, 56.43 32.63, 85.04 -0.28 M-0.25 97.84 C23.59 70.42, 47.43 43, 85.04 -0.28 M1.46 101.97 C24.03 76, 46.61 50.04, 90.03 0.08 M1.46 101.97 C27.58 71.92, 53.7 41.87, 90.03 0.08 M6.45 102.33 C27.05 78.62, 47.66 54.92, 95.67 -0.31 M6.45 102.33 C33.17 71.59, 59.89 40.85, 95.67 -0.31 M12.09 101.94 C46.3 62.58, 80.51 23.23, 100.66 0.05 M12.09 101.94 C39.58 70.31, 67.08 38.68, 100.66 0.05 M17.08 102.3 C46.82 68.08, 76.56 33.87, 103.68 2.67 M17.08 102.3 C39.35 76.67, 61.63 51.05, 103.68 2.67 M22.72 101.9 C43.35 78.17, 63.98 54.44, 104.07 8.32 M22.72 101.9 C43.09 78.46, 63.47 55.03, 104.07 8.32 M27.71 102.26 C45.01 82.36, 62.31 62.46, 103.81 14.71 M27.71 102.26 C46.77 80.33, 65.83 58.41, 103.81 14.71 M33.35 101.87 C59.29 72.02, 85.23 42.18, 104.2 20.36 M33.35 101.87 C57.17 74.46, 80.99 47.06, 104.2 20.36 M38.34 102.23 C64.15 72.53, 89.97 42.83, 103.94 26.76 M38.34 102.23 C62.87 74.01, 87.4 45.79, 103.94 26.76 M43.98 101.83 C61.07 82.17, 78.16 62.51, 103.68 33.15 M43.98 101.83 C61.04 82.2, 78.11 62.57, 103.68 33.15 M48.97 102.19 C65.82 82.81, 82.67 63.42, 104.08 38.8 M48.97 102.19 C66.55 81.96, 84.14 61.74, 104.08 38.8 M53.95 102.55 C65.39 89.39, 76.83 76.24, 103.81 45.19 M53.95 102.55 C69.63 84.52, 85.3 66.5, 103.81 45.19 M59.6 102.16 C76.61 82.59, 93.62 63.02, 104.21 50.84 M59.6 102.16 C76.3 82.94, 93.01 63.73, 104.21 50.84 M64.58 102.52 C74.98 90.55, 85.38 78.59, 103.95 57.24 M64.58 102.52 C77.71 87.42, 90.84 72.32, 103.95 57.24 M70.23 102.12 C83.28 87.1, 96.34 72.08, 103.69 63.63 M70.23 102.12 C77.76 93.45, 85.3 84.78, 103.69 63.63 M75.21 102.48 C84.23 92.11, 93.25 81.74, 104.08 69.28 M75.21 102.48 C85.38 90.79, 95.54 79.1, 104.08 69.28 M80.86 102.09 C86.73 95.33, 92.6 88.58, 103.82 75.67 M80.86 102.09 C88.98 92.74, 97.1 83.4, 103.82 75.67 M85.84 102.45 C92.02 95.34, 98.2 88.23, 103.56 82.07 M85.84 102.45 C90.73 96.83, 95.62 91.21, 103.56 82.07 M91.49 102.05 C94.66 98.41, 97.83 94.76, 103.95 87.71 M91.49 102.05 C94.47 98.63, 97.44 95.2, 103.95 87.71 M96.47 102.41 C97.93 100.74, 99.38 99.07, 103.69 94.11 M96.47 102.41 C98.69 99.86, 100.91 97.31, 103.69 94.11 M-0.24 100.87 C-0.24 100.87, -0.24 100.87, -0.24 100.87 M-0.24 100.87 C-0.24 100.87, -0.24 100.87, -0.24 100.87 M6.16 101.14 C4.04 99.29, 1.92 97.45, 0.12 95.89 M6.16 101.14 C4.08 99.32, 1.99 97.51, 0.12 95.89 M12.56 101.4 C8.42 97.8, 4.29 94.21, -0.27 90.24 M12.56 101.4 C7.68 97.16, 2.81 92.92, -0.27 90.24 M18.2 101 C12.17 95.76, 6.15 90.52, 0.09 85.26 M18.2 101 C11.2 94.91, 4.19 88.82, 0.09 85.26 M24.6 101.26 C16.88 94.56, 9.17 87.85, -0.31 79.61 M24.6 101.26 C15.17 93.07, 5.75 84.88, -0.31 79.61 M30.24 100.87 C20.19 92.13, 10.13 83.39, 0.05 74.63 M30.24 100.87 C20.45 92.36, 10.66 83.85, 0.05 74.63 M36.64 101.13 C26.75 92.54, 16.87 83.94, -0.34 68.98 M36.64 101.13 C28.56 94.11, 20.48 87.08, -0.34 68.98 M43.04 101.39 C26.14 86.7, 9.24 72.01, 0.02 64 M43.04 101.39 C28.05 88.37, 13.07 75.34, 0.02 64 M48.68 101 C37.06 90.89, 25.43 80.79, -0.38 58.35 M48.68 101 C30.84 85.49, 13.01 69.99, -0.38 58.35 M55.08 101.26 C43.76 91.42, 32.43 81.57, -0.02 53.37 M55.08 101.26 C36.05 84.72, 17.03 68.18, -0.02 53.37 M60.72 100.86 C47.81 89.64, 34.91 78.42, 0.34 48.38 M60.72 100.86 C44.17 86.48, 27.62 72.09, 0.34 48.38 M67.12 101.13 C45.76 82.56, 24.41 64, -0.05 42.74 M67.12 101.13 C47.02 83.65, 26.91 66.18, -0.05 42.74 M73.52 101.39 C48.18 79.36, 22.84 57.34, 0.31 37.75 M73.52 101.39 C58.34 88.2, 43.17 75.01, 0.31 37.75 M79.16 100.99 C53.02 78.27, 26.88 55.55, -0.08 32.11 M79.16 100.99 C56.12 80.97, 33.08 60.94, -0.08 32.11 M85.56 101.25 C56.96 76.4, 28.37 51.54, 0.28 27.12 M85.56 101.25 C67.05 85.17, 48.54 69.08, 0.28 27.12 M91.2 100.86 C64.32 77.49, 37.44 54.13, -0.12 21.48 M91.2 100.86 C64.07 77.27, 36.93 53.68, -0.12 21.48 M97.6 101.12 C74.63 81.15, 51.65 61.18, 0.24 16.49 M97.6 101.12 C63.1 71.13, 28.61 41.15, 0.24 16.49 M102.49 100.07 C69.9 71.75, 37.32 43.42, -0.15 10.85 M102.49 100.07 C62.16 65.01, 21.83 29.96, -0.15 10.85 M102.09 94.43 C76.04 71.78, 49.98 49.13, 0.21 5.86 M102.09 94.43 C74.89 70.78, 47.69 47.13, 0.21 5.86 M102.45 89.44 C65.66 57.46, 28.87 25.48, -0.19 0.22 M102.45 89.44 C66.6 58.28, 30.76 27.12, -0.19 0.22 M102.06 83.8 C66.65 53.02, 31.25 22.24, 2.44 -2.8 M102.06 83.8 C62.24 49.18, 22.42 14.57, 2.44 -2.8 M102.42 78.81 C80.93 60.13, 59.44 41.45, 8.83 -2.54 M102.42 78.81 C80.49 59.75, 58.56 40.69, 8.83 -2.54 M102.02 73.17 C80.24 54.23, 58.45 35.29, 14.48 -2.94 M102.02 73.17 C67.53 43.18, 33.04 13.2, 14.48 -2.94 M102.38 68.18 C70.06 40.08, 37.74 11.99, 20.87 -2.67 M102.38 68.18 C85.02 53.08, 67.65 37.99, 20.87 -2.67 M101.99 62.54 C86.65 49.2, 71.31 35.87, 26.52 -3.07 M101.99 62.54 C80.23 43.62, 58.47 24.71, 26.52 -3.07 M102.35 57.55 C76.12 34.75, 49.89 11.95, 32.92 -2.81 M102.35 57.55 C78.23 36.58, 54.11 15.62, 32.92 -2.81 M101.95 51.91 C87.01 38.92, 72.06 25.92, 39.31 -2.55 M101.95 51.91 C82.04 34.6, 62.13 17.28, 39.31 -2.55 M102.31 46.92 C82.53 29.72, 62.74 12.52, 44.96 -2.94 M102.31 46.92 C79.6 27.18, 56.89 7.43, 44.96 -2.94 M101.92 41.28 C85.32 26.85, 68.72 12.42, 51.35 -2.68 M101.92 41.28 C85.99 27.43, 70.06 13.58, 51.35 -2.68 M102.28 36.29 C87.65 23.57, 73.02 10.85, 57 -3.07 M102.28 36.29 C92.57 27.85, 82.85 19.4, 57 -3.07 M101.89 30.65 C86.54 17.31, 71.19 3.97, 63.4 -2.81 M101.89 30.65 C90 20.32, 78.12 9.99, 63.4 -2.81 M102.25 25.66 C89.59 14.66, 76.93 3.65, 69.79 -2.55 M102.25 25.66 C90.71 15.63, 79.17 5.6, 69.79 -2.55 M101.85 20.02 C93.15 12.45, 84.45 4.89, 75.44 -2.95 M101.85 20.02 C93.27 12.56, 84.69 5.1, 75.44 -2.95 M102.21 15.03 C96.57 10.12, 90.92 5.22, 81.83 -2.68 M102.21 15.03 C96.75 10.28, 91.28 5.53, 81.83 -2.68 M101.82 9.39 C96.75 4.99, 91.69 0.59, 87.48 -3.08 M101.82 9.39 C96.28 4.57, 90.74 -0.24, 87.48 -3.08 M102.18 4.4 C99.12 1.74, 96.06 -0.91, 93.87 -2.82 M102.18 4.4 C99.7 2.24, 97.21 0.09, 93.87 -2.82" stroke="#4c6ef588" stroke-width="0.5" fill="none"></path><path d="M0 0 C30.51 0, 61.02 0, 101.08 0 M0 0 C30.58 0, 61.17 0, 101.08 0 M101.08 0 C101.08 37.83, 101.08 75.67, 101.08 101.08 M101.08 0 C101.08 38.44, 101.08 76.89, 101.08 101.08 M101.08 101.08 C76.14 101.08, 51.2 101.08, 0 101.08 M101.08 101.08 C79.64 101.08, 58.2 101.08, 0 101.08 M0 101.08 C0 74.2, 0 47.32, 0 0 M0 101.08 C0 80.21, 0 59.33, 0 0" stroke="#0b7285" stroke-width="1" fill="none"></path></g><g stroke-linecap="round"><g transform="translate(628.1710363613822 176.53244593571208) rotate(347.8150297286332 3.5063687908285033 5.288053096842759)"><path d="M0 0 C2.52 3.8, 5.04 7.6, 7.01 10.58 M0 0 C2.22 3.35, 4.45 6.7, 7.01 10.58" stroke="#0b7285" stroke-width="1" fill="none"></path></g></g><mask></mask><g stroke-linecap="round"><g transform="translate(633.6118583551861 111.0373168790095) rotate(1.7147489031136585 -3.7883252017467157 5.581868942545157)"><path d="M0 0 C-2.35 3.47, -4.71 6.93, -7.58 11.16 M0 0 C-2.97 4.37, -5.93 8.74, -7.58 11.16" stroke="#0b7285" stroke-width="1" fill="none"></path></g></g><mask></mask><g stroke-linecap="round"><g transform="translate(640.1645698229855 181.41071959592796) rotate(330.3350417630171 -5.4573975738337595 3.902948892765721)"><path d="M0 0 C-1.28 2.43, -2.57 4.86, -4.12 7.81 M0 0 C-0.95 1.8, -1.9 3.6, -4.12 7.81 M-4.12 7.81 C-6.26 6.34, -8.4 4.88, -10.91 3.16 M-4.12 7.81 C-5.5 6.87, -6.87 5.93, -10.91 3.16" stroke="#0b7285" stroke-width="1" fill="none"></path></g></g><mask></mask><g stroke-linecap="round"><g transform="translate(567.0231660973578 110.03756200578277) rotate(142.4753661383674 -5.032705331413979 3.4392676481417084)"><path d="M0 0 C-1.11 1.62, -2.23 3.23, -4.74 6.88 M0 0 C-1.62 2.34, -3.23 4.69, -4.74 6.88 M-4.74 6.88 C-6.51 4.81, -8.27 2.75, -10.07 0.65 M-4.74 6.88 C-6.36 4.98, -7.99 3.08, -10.07 0.65" stroke="#0b7285" stroke-width="1" fill="none"></path></g></g><mask></mask><g stroke-linecap="round"><g transform="translate(562.023898903302 112.1090046913298) rotate(347.8150297286332 3.5063687908285033 5.288053096842759)"><path d="M0 0 C2.58 3.89, 5.16 7.78, 7.01 10.58 M0 0 C1.83 2.76, 3.67 5.53, 7.01 10.58" stroke="#0b7285" stroke-width="1" fill="none"></path></g></g><mask></mask><g stroke-linecap="round"><g transform="translate(569.8264848187686 176.14624895852057) rotate(3.9451862290376525 -3.7883252017467157 5.581868942545157)"><path d="M0 0 C-2.16 3.18, -4.31 6.35, -7.58 11.16 M0 0 C-1.69 2.49, -3.37 4.97, -7.58 11.16" stroke="#0b7285" stroke-width="1" fill="none"></path></g></g><mask></mask><g stroke-linecap="round"><g transform="translate(638.6394309284651 108.80977935589908) rotate(220.82937908555525 -5.032705331413979 3.4392676481417084)"><path d="M0 0 C-1.36 1.97, -2.72 3.95, -4.74 6.88 M0 0 C-1.67 2.42, -3.33 4.83, -4.74 6.88 M-4.74 6.88 C-6.19 5.18, -7.64 3.49, -10.07 0.65 M-4.74 6.88 C-5.89 5.53, -7.04 4.19, -10.07 0.65" stroke="#0b7285" stroke-width="1" fill="none"></path></g></g><mask></mask><g stroke-linecap="round"><g transform="translate(567.0664369637017 182.75286463538782) rotate(38.039922017610984 -5.032705331413979 3.4392676481417084)"><path d="M0 0 C-0.99 1.43, -1.97 2.86, -4.74 6.88 M0 0 C-1.57 2.28, -3.14 4.56, -4.74 6.88 M-4.74 6.88 C-6.65 4.65, -8.56 2.41, -10.07 0.65 M-4.74 6.88 C-6.65 4.65, -8.55 2.42, -10.07 0.65" stroke="#0b7285" stroke-width="1" fill="none"></path></g></g><mask></mask><g stroke-linecap="round"><g transform="translate(580.1294633722267 127.30674663692821) rotate(0 17.97888075116623 23.306087173854166)"><path d="M0 0 C0 6.6, -0.1 31.82, 0 39.61 C0.1 47.41, -0.2 45.14, 0.63 46.77 C1.45 48.41, 3.15 48.62, 4.95 49.41 C6.75 50.19, 9.19 51.05, 11.42 51.49 C13.65 51.92, 16.19 52.02, 18.33 52.02 C20.46 52.02, 22.31 51.8, 24.22 51.49 C26.12 51.18, 27.9 51, 29.74 50.16 C31.58 49.33, 34.28 48.25, 35.26 46.49 C36.24 44.73, 35.52 46.46, 35.63 39.61 C35.75 32.76, 35.96 12.03, 35.93 5.4 C35.91 -1.24, 36.3 1.25, 35.48 -0.17 C34.66 -1.6, 32.59 -2.37, 31.01 -3.14 C29.43 -3.92, 27.92 -4.46, 26 -4.83 C24.08 -5.19, 21.26 -5.24, 19.48 -5.32 C17.71 -5.4, 17.5 -5.49, 15.35 -5.31 C13.19 -5.12, 9.1 -5.12, 6.54 -4.24 C3.98 -3.35, 1.09 -0.71, 0 0 M0 0 C0 6.6, -0.1 31.82, 0 39.61 C0.1 47.41, -0.2 45.14, 0.63 46.77 C1.45 48.41, 3.15 48.62, 4.95 49.41 C6.75 50.19, 9.19 51.05, 11.42 51.49 C13.65 51.92, 16.19 52.02, 18.33 52.02 C20.46 52.02, 22.31 51.8, 24.22 51.49 C26.12 51.18, 27.9 51, 29.74 50.16 C31.58 49.33, 34.28 48.25, 35.26 46.49 C36.24 44.73, 35.52 46.46, 35.63 39.61 C35.75 32.76, 35.96 12.03, 35.93 5.4 C35.91 -1.24, 36.3 1.25, 35.48 -0.17 C34.66 -1.6, 32.59 -2.37, 31.01 -3.14 C29.43 -3.92, 27.92 -4.46, 26 -4.83 C24.08 -5.19, 21.26 -5.24, 19.48 -5.32 C17.71 -5.4, 17.5 -5.49, 15.35 -5.31 C13.19 -5.12, 9.1 -5.12, 6.54 -4.24 C3.98 -3.35, 1.09 -0.71, 0 0" stroke="#0b7285" stroke-width="1" fill="none"></path></g></g><mask></mask><g stroke-linecap="round" transform="translate(579.9971626070629 121.79622372279664) rotate(0 17.93466944099424 4.876344776661881)"><path d="M35.87 4.88 C35.87 5.16, 35.78 5.45, 35.6 5.72 C35.42 6, 35.14 6.28, 34.79 6.54 C34.43 6.81, 33.99 7.07, 33.47 7.31 C32.95 7.56, 32.34 7.79, 31.67 8.01 C31.01 8.23, 30.26 8.43, 29.46 8.61 C28.67 8.79, 27.8 8.96, 26.9 9.1 C26 9.24, 25.04 9.36, 24.07 9.46 C23.09 9.56, 22.07 9.63, 21.05 9.68 C20.03 9.73, 18.97 9.75, 17.93 9.75 C16.9 9.75, 15.84 9.73, 14.82 9.68 C13.8 9.63, 12.78 9.56, 11.8 9.46 C10.83 9.36, 9.87 9.24, 8.97 9.1 C8.07 8.96, 7.2 8.79, 6.41 8.61 C5.61 8.43, 4.86 8.23, 4.2 8.01 C3.53 7.79, 2.92 7.56, 2.4 7.31 C1.88 7.07, 1.44 6.81, 1.08 6.54 C0.73 6.28, 0.45 6, 0.27 5.72 C0.09 5.45, 0 5.16, 0 4.88 C0 4.59, 0.09 4.31, 0.27 4.03 C0.45 3.75, 0.73 3.47, 1.08 3.21 C1.44 2.94, 1.88 2.68, 2.4 2.44 C2.92 2.19, 3.53 1.96, 4.2 1.74 C4.86 1.53, 5.61 1.32, 6.41 1.14 C7.2 0.96, 8.07 0.79, 8.97 0.65 C9.87 0.51, 10.83 0.39, 11.8 0.29 C12.78 0.2, 13.8 0.12, 14.82 0.07 C15.84 0.03, 16.9 0, 17.93 0 C18.97 0, 20.03 0.03, 21.05 0.07 C22.07 0.12, 23.09 0.2, 24.07 0.29 C25.04 0.39, 26 0.51, 26.9 0.65 C27.8 0.79, 28.67 0.96, 29.46 1.14 C30.26 1.32, 31.01 1.53, 31.67 1.74 C32.34 1.96, 32.95 2.19, 33.47 2.44 C33.99 2.68, 34.43 2.94, 34.79 3.21 C35.14 3.47, 35.42 3.75, 35.6 4.03 C35.78 4.31, 35.82 4.74, 35.87 4.88 C35.91 5.02, 35.91 4.74, 35.87 4.88" stroke="none" stroke-width="0" fill="#ffffff"></path><path d="M35.87 4.88 C35.87 5.16, 35.78 5.45, 35.6 5.72 C35.42 6, 35.14 6.28, 34.79 6.54 C34.43 6.81, 33.99 7.07, 33.47 7.31 C32.95 7.56, 32.34 7.79, 31.67 8.01 C31.01 8.23, 30.26 8.43, 29.46 8.61 C28.67 8.79, 27.8 8.96, 26.9 9.1 C26 9.24, 25.04 9.36, 24.07 9.46 C23.09 9.56, 22.07 9.63, 21.05 9.68 C20.03 9.73, 18.97 9.75, 17.93 9.75 C16.9 9.75, 15.84 9.73, 14.82 9.68 C13.8 9.63, 12.78 9.56, 11.8 9.46 C10.83 9.36, 9.87 9.24, 8.97 9.1 C8.07 8.96, 7.2 8.79, 6.41 8.61 C5.61 8.43, 4.86 8.23, 4.2 8.01 C3.53 7.79, 2.92 7.56, 2.4 7.31 C1.88 7.07, 1.44 6.81, 1.08 6.54 C0.73 6.28, 0.45 6, 0.27 5.72 C0.09 5.45, 0 5.16, 0 4.88 C0 4.59, 0.09 4.31, 0.27 4.03 C0.45 3.75, 0.73 3.47, 1.08 3.21 C1.44 2.94, 1.88 2.68, 2.4 2.44 C2.92 2.19, 3.53 1.96, 4.2 1.74 C4.86 1.53, 5.61 1.32, 6.41 1.14 C7.2 0.96, 8.07 0.79, 8.97 0.65 C9.87 0.51, 10.83 0.39, 11.8 0.29 C12.78 0.2, 13.8 0.12, 14.82 0.07 C15.84 0.03, 16.9 0, 17.93 0 C18.97 0, 20.03 0.03, 21.05 0.07 C22.07 0.12, 23.09 0.2, 24.07 0.29 C25.04 0.39, 26 0.51, 26.9 0.65 C27.8 0.79, 28.67 0.96, 29.46 1.14 C30.26 1.32, 31.01 1.53, 31.67 1.74 C32.34 1.96, 32.95 2.19, 33.47 2.44 C33.99 2.68, 34.43 2.94, 34.79 3.21 C35.14 3.47, 35.42 3.75, 35.6 4.03 C35.78 4.31, 35.82 4.74, 35.87 4.88 C35.91 5.02, 35.91 4.74, 35.87 4.88" stroke="#0b7285" stroke-width="1" fill="none"></path></g><g stroke-linecap="round"><g transform="translate(580.6179724151067 141.46294507789503) rotate(0 17.634468831037168 1.8159571630027358)"><path d="M0 0 C0.18 0.19, 0.46 0.76, 1.06 1.15 C1.66 1.53, 2.68 2.02, 3.62 2.33 C4.56 2.65, 5.18 2.77, 6.7 3.05 C8.22 3.33, 10.75 3.83, 12.72 4 C14.69 4.17, 16.69 4.1, 18.51 4.06 C20.33 4.01, 22.04 3.88, 23.64 3.73 C25.23 3.58, 26.64 3.42, 28.07 3.14 C29.51 2.86, 31.2 2.43, 32.26 2.04 C33.31 1.65, 33.91 1.22, 34.41 0.8 C34.92 0.38, 35.13 -0.26, 35.27 -0.47 M0 0 C0.18 0.19, 0.46 0.76, 1.06 1.15 C1.66 1.53, 2.68 2.02, 3.62 2.33 C4.56 2.65, 5.18 2.77, 6.7 3.05 C8.22 3.33, 10.75 3.83, 12.72 4 C14.69 4.17, 16.69 4.1, 18.51 4.06 C20.33 4.01, 22.04 3.88, 23.64 3.73 C25.23 3.58, 26.64 3.42, 28.07 3.14 C29.51 2.86, 31.2 2.43, 32.26 2.04 C33.31 1.65, 33.91 1.22, 34.41 0.8 C34.92 0.38, 35.13 -0.26, 35.27 -0.47" stroke="#0b7285" stroke-width="1" fill="none"></path></g></g><mask></mask><g stroke-linecap="round"><g transform="translate(579.6206482624478 158.13529806145561) rotate(0 17.634468831037168 1.8159571630027358)"><path d="M0 0 C0.18 0.19, 0.46 0.76, 1.06 1.15 C1.66 1.53, 2.68 2.02, 3.62 2.33 C4.56 2.65, 5.18 2.77, 6.7 3.05 C8.22 3.33, 10.75 3.83, 12.72 4 C14.69 4.17, 16.69 4.1, 18.51 4.06 C20.33 4.01, 22.04 3.88, 23.64 3.73 C25.23 3.58, 26.64 3.42, 28.07 3.14 C29.51 2.86, 31.2 2.43, 32.26 2.04 C33.31 1.65, 33.91 1.22, 34.41 0.8 C34.92 0.38, 35.13 -0.26, 35.27 -0.47 M0 0 C0.18 0.19, 0.46 0.76, 1.06 1.15 C1.66 1.53, 2.68 2.02, 3.62 2.33 C4.56 2.65, 5.18 2.77, 6.7 3.05 C8.22 3.33, 10.75 3.83, 12.72 4 C14.69 4.17, 16.69 4.1, 18.51 4.06 C20.33 4.01, 22.04 3.88, 23.64 3.73 C25.23 3.58, 26.64 3.42, 28.07 3.14 C29.51 2.86, 31.2 2.43, 32.26 2.04 C33.31 1.65, 33.91 1.22, 34.41 0.8 C34.92 0.38, 35.13 -0.26, 35.27 -0.47" stroke="#0b7285" stroke-width="1" fill="none"></path></g></g><mask></mask><g stroke-linecap="round"><g transform="translate(579.4992041461962 137.42034939231507) rotate(345.7367506517737 -7.2495801156858874 13.723247391432437)"><path d="M0 0 C-0.9 0.2, -3.86 0.61, -5.38 1.2 C-6.9 1.79, -8.05 2.64, -9.13 3.52 C-10.2 4.41, -11.01 5.2, -11.82 6.5 C-12.63 7.8, -13.53 9.91, -13.98 11.33 C-14.42 12.75, -14.58 13.52, -14.46 15.03 C-14.35 16.54, -13.86 18.82, -13.29 20.37 C-12.71 21.93, -11.95 23.16, -11 24.33 C-10.06 25.51, -8.17 26.93, -7.6 27.45 M0 0 C-0.9 0.2, -3.86 0.61, -5.38 1.2 C-6.9 1.79, -8.05 2.64, -9.13 3.52 C-10.2 4.41, -11.01 5.2, -11.82 6.5 C-12.63 7.8, -13.53 9.91, -13.98 11.33 C-14.42 12.75, -14.58 13.52, -14.46 15.03 C-14.35 16.54, -13.86 18.82, -13.29 20.37 C-12.71 21.93, -11.95 23.16, -11 24.33 C-10.06 25.51, -8.17 26.93, -7.6 27.45" stroke="#0b7285" stroke-width="1" fill="none"></path></g></g><mask></mask><g stroke-linecap="round"><g transform="translate(615.5486730425962 137.4544773548448) rotate(17.81142405980979 8.241494526072927 14.008153413913874)"><path d="M0 0 C1.02 0.2, 4.39 0.62, 6.12 1.22 C7.85 1.82, 9.16 2.69, 10.38 3.6 C11.6 4.5, 12.52 5.31, 13.44 6.64 C14.36 7.97, 15.39 10.11, 15.89 11.56 C16.39 13.01, 16.57 13.8, 16.44 15.34 C16.31 16.88, 15.76 19.21, 15.1 20.8 C14.45 22.38, 13.59 23.64, 12.51 24.84 C11.43 26.04, 9.29 27.49, 8.64 28.02 M0 0 C1.02 0.2, 4.39 0.62, 6.12 1.22 C7.85 1.82, 9.16 2.69, 10.38 3.6 C11.6 4.5, 12.52 5.31, 13.44 6.64 C14.36 7.97, 15.39 10.11, 15.89 11.56 C16.39 13.01, 16.57 13.8, 16.44 15.34 C16.31 16.88, 15.76 19.21, 15.1 20.8 C14.45 22.38, 13.59 23.64, 12.51 24.84 C11.43 26.04, 9.29 27.49, 8.64 28.02" stroke="#0b7285" stroke-width="1" fill="none"></path></g></g><mask></mask><g transform="translate(263.83998316662905 215.90036753146296) rotate(0 36 13)"><text x="36" y="18" font-family="Virgil, Segoe UI Emoji" font-size="20px" fill="#000000" text-anchor="middle" style="white-space: pre;" direction="ltr">Primary</text></g><g stroke-linecap="round" transform="translate(249.2995626344025 99.91487769863852) rotate(0 50.540420532226506 50.54042053222656)"><path d="M0 0 C0 0, 0 0, 0 0 M0 0 C0 0, 0 0, 0 0 M-0.26 6.4 C1.46 4.42, 3.18 2.44, 4.99 0.36 M-0.26 6.4 C1.43 4.45, 3.13 2.5, 4.99 0.36 M0.13 12.04 C3.73 7.91, 7.32 3.77, 10.63 -0.03 M0.13 12.04 C3.77 7.86, 7.41 3.67, 10.63 -0.03 M-0.13 18.44 C4.06 13.62, 8.26 8.79, 15.62 0.33 M-0.13 18.44 C4.43 13.19, 9 7.94, 15.62 0.33 M0.27 24.08 C4.82 18.85, 9.37 13.61, 21.26 -0.07 M0.27 24.08 C7.09 16.23, 13.92 8.38, 21.26 -0.07 M0 30.48 C9.57 19.47, 19.14 8.47, 26.25 0.29 M0 30.48 C7.38 22, 14.75 13.52, 26.25 0.29 M-0.26 36.88 C11.47 23.39, 23.2 9.9, 31.89 -0.1 M-0.26 36.88 C9.73 25.39, 19.71 13.91, 31.89 -0.1 M0.14 42.52 C14.4 26.11, 28.67 9.7, 36.88 0.26 M0.14 42.52 C13.4 27.26, 26.67 12, 36.88 0.26 M-0.12 48.92 C14.94 31.59, 30.01 14.26, 42.52 -0.14 M-0.12 48.92 C10.17 37.07, 20.47 25.23, 42.52 -0.14 M0.27 54.56 C17.09 35.22, 33.91 15.87, 47.51 0.22 M0.27 54.56 C14.07 38.69, 27.86 22.82, 47.51 0.22 M0.01 60.96 C16.08 42.47, 32.16 23.98, 53.15 -0.17 M0.01 60.96 C13.45 45.5, 26.89 30.03, 53.15 -0.17 M-0.25 67.36 C19.57 44.56, 39.39 21.76, 58.14 0.19 M-0.25 67.36 C19.17 45.01, 38.6 22.66, 58.14 0.19 M0.14 73 C18.32 52.08, 36.51 31.17, 63.78 -0.21 M0.14 73 C17.79 52.7, 35.43 32.41, 63.78 -0.21 M-0.12 79.4 C18.03 58.52, 36.18 37.65, 68.77 0.15 M-0.12 79.4 C16.31 60.49, 32.75 41.59, 68.77 0.15 M0.28 85.04 C24.69 56.95, 49.11 28.87, 74.41 -0.24 M0.28 85.04 C18.32 64.28, 36.36 43.53, 74.41 -0.24 M0.01 91.44 C24.3 63.5, 48.59 35.56, 79.4 0.12 M0.01 91.44 C20.82 67.5, 41.63 43.56, 79.4 0.12 M-0.25 97.84 C17.91 76.94, 36.07 56.05, 85.04 -0.28 M-0.25 97.84 C23.41 70.62, 47.06 43.41, 85.04 -0.28 M1.46 101.97 C27.87 71.59, 54.28 41.21, 90.03 0.08 M1.46 101.97 C32.7 66.03, 63.95 30.08, 90.03 0.08 M6.45 102.33 C30.46 74.7, 54.48 47.08, 95.67 -0.31 M6.45 102.33 C33.38 71.34, 60.32 40.36, 95.67 -0.31 M12.09 101.94 C40.81 68.9, 69.52 35.87, 100.66 0.05 M12.09 101.94 C43.69 65.59, 75.29 29.24, 100.66 0.05 M17.08 102.3 C50.31 64.06, 83.55 25.83, 103.68 2.67 M17.08 102.3 C37.58 78.71, 58.08 55.13, 103.68 2.67 M22.72 101.9 C48.88 71.81, 75.04 41.72, 104.07 8.32 M22.72 101.9 C40.39 81.58, 58.06 61.25, 104.07 8.32 M27.71 102.26 C57.83 67.61, 87.94 32.97, 103.81 14.71 M27.71 102.26 C58.02 67.39, 88.34 32.51, 103.81 14.71 M33.35 101.87 C53.23 79, 73.11 56.13, 104.2 20.36 M33.35 101.87 C59.85 71.38, 86.35 40.89, 104.2 20.36 M38.34 102.23 C57.83 79.8, 77.32 57.38, 103.94 26.76 M38.34 102.23 C58.04 79.57, 77.73 56.91, 103.94 26.76 M43.98 101.83 C58.6 85.01, 73.22 68.19, 103.68 33.15 M43.98 101.83 C65.72 76.82, 87.46 51.81, 103.68 33.15 M48.97 102.19 C61.81 87.42, 74.65 72.65, 104.08 38.8 M48.97 102.19 C62.89 86.17, 76.82 70.15, 104.08 38.8 M53.95 102.55 C69.48 84.7, 85 66.84, 103.81 45.19 M53.95 102.55 C64.99 89.86, 76.03 77.16, 103.81 45.19 M59.6 102.16 C73.06 86.67, 86.52 71.19, 104.21 50.84 M59.6 102.16 C75.79 83.53, 91.98 64.91, 104.21 50.84 M64.58 102.52 C73.62 92.12, 82.66 81.73, 103.95 57.24 M64.58 102.52 C75.46 90.01, 86.33 77.51, 103.95 57.24 M70.23 102.12 C82.09 88.47, 93.96 74.82, 103.69 63.63 M70.23 102.12 C81.43 89.23, 92.64 76.35, 103.69 63.63 M75.21 102.48 C81.07 95.75, 86.92 89.02, 104.08 69.28 M75.21 102.48 C85.49 90.66, 95.78 78.83, 104.08 69.28 M80.86 102.09 C89.96 91.62, 99.06 81.14, 103.82 75.67 M80.86 102.09 C87.05 94.97, 93.24 87.85, 103.82 75.67 M85.84 102.45 C90.93 96.6, 96.01 90.76, 103.56 82.07 M85.84 102.45 C92.67 94.59, 99.51 86.73, 103.56 82.07 M91.49 102.05 C96.28 96.54, 101.08 91.02, 103.95 87.71 M91.49 102.05 C94.79 98.26, 98.09 94.46, 103.95 87.71 M96.47 102.41 C99.3 99.17, 102.12 95.92, 103.69 94.11 M96.47 102.41 C99.26 99.21, 102.04 96.01, 103.69 94.11 M-0.24 100.87 C-0.24 100.87, -0.24 100.87, -0.24 100.87 M-0.24 100.87 C-0.24 100.87, -0.24 100.87, -0.24 100.87 M6.16 101.14 C4.48 99.68, 2.8 98.22, 0.12 95.89 M6.16 101.14 C4.5 99.69, 2.84 98.25, 0.12 95.89 M12.56 101.4 C7.47 96.97, 2.38 92.55, -0.27 90.24 M12.56 101.4 C9.83 99.03, 7.11 96.66, -0.27 90.24 M18.2 101 C11.62 95.29, 5.05 89.57, 0.09 85.26 M18.2 101 C13.35 96.79, 8.5 92.57, 0.09 85.26 M24.6 101.26 C17.09 94.74, 9.58 88.21, -0.31 79.61 M24.6 101.26 C16.02 93.8, 7.44 86.34, -0.31 79.61 M30.24 100.87 C20.74 92.61, 11.24 84.35, 0.05 74.63 M30.24 100.87 C21.9 93.61, 13.55 86.36, 0.05 74.63 M36.64 101.13 C25 91.01, 13.36 80.9, -0.34 68.98 M36.64 101.13 C25.64 91.57, 14.65 82.01, -0.34 68.98 M43.04 101.39 C32.08 91.87, 21.13 82.35, 0.02 64 M43.04 101.39 C29.72 89.82, 16.4 78.24, 0.02 64 M48.68 101 C31.04 85.66, 13.4 70.33, -0.38 58.35 M48.68 101 C31.37 85.95, 14.07 70.91, -0.38 58.35 M55.08 101.26 C35.36 84.12, 15.65 66.98, -0.02 53.37 M55.08 101.26 C40.05 88.2, 25.03 75.14, -0.02 53.37 M60.72 100.86 C41.85 84.46, 22.99 68.06, 0.34 48.38 M60.72 100.86 C37.18 80.4, 13.64 59.93, 0.34 48.38 M67.12 101.13 C50.17 86.4, 33.23 71.67, -0.05 42.74 M67.12 101.13 C42.37 79.61, 17.62 58.1, -0.05 42.74 M73.52 101.39 C58.65 88.47, 43.79 75.55, 0.31 37.75 M73.52 101.39 C52.67 83.27, 31.83 65.15, 0.31 37.75 M79.16 100.99 C61.81 85.91, 44.45 70.82, -0.08 32.11 M79.16 100.99 C55.69 80.59, 32.23 60.2, -0.08 32.11 M85.56 101.25 C67.32 85.4, 49.08 69.55, 0.28 27.12 M85.56 101.25 C59.13 78.28, 32.69 55.3, 0.28 27.12 M91.2 100.86 C55.38 69.72, 19.56 38.59, -0.12 21.48 M91.2 100.86 C68.19 80.86, 45.19 60.86, -0.12 21.48 M97.6 101.12 C70.26 77.36, 42.93 53.6, 0.24 16.49 M97.6 101.12 C64.96 72.75, 32.32 44.37, 0.24 16.49 M102.49 100.07 C65.6 68.01, 28.71 35.94, -0.15 10.85 M102.49 100.07 C68.71 70.71, 34.94 41.35, -0.15 10.85 M102.09 94.43 C72.28 68.51, 42.46 42.59, 0.21 5.86 M102.09 94.43 C78.94 74.3, 55.78 54.17, 0.21 5.86 M102.45 89.44 C65.41 57.24, 28.37 25.04, -0.19 0.22 M102.45 89.44 C69.87 61.12, 37.29 32.8, -0.19 0.22 M102.06 83.8 C73.01 58.55, 43.97 33.3, 2.44 -2.8 M102.06 83.8 C77.22 62.2, 52.37 40.61, 2.44 -2.8 M102.42 78.81 C75.24 55.19, 48.07 31.56, 8.83 -2.54 M102.42 78.81 C73.97 54.08, 45.53 29.36, 8.83 -2.54 M102.02 73.17 C78.15 52.42, 54.28 31.66, 14.48 -2.94 M102.02 73.17 C79.1 53.24, 56.17 33.31, 14.48 -2.94 M102.38 68.18 C78.37 47.31, 54.36 26.44, 20.87 -2.67 M102.38 68.18 C80.19 48.88, 57.99 29.59, 20.87 -2.67 M101.99 62.54 C72.99 37.33, 43.99 12.12, 26.52 -3.07 M101.99 62.54 C77.69 41.42, 53.4 20.3, 26.52 -3.07 M102.35 57.55 C76.43 35.02, 50.51 12.49, 32.92 -2.81 M102.35 57.55 C81.3 39.25, 60.24 20.95, 32.92 -2.81 M101.95 51.91 C81.42 34.06, 60.89 16.21, 39.31 -2.55 M101.95 51.91 C84.19 36.46, 66.42 21.02, 39.31 -2.55 M102.31 46.92 C80.54 27.99, 58.77 9.07, 44.96 -2.94 M102.31 46.92 C80.86 28.27, 59.4 9.61, 44.96 -2.94 M101.92 41.28 C83.83 25.55, 65.74 9.83, 51.35 -2.68 M101.92 41.28 C81.8 23.79, 61.68 6.3, 51.35 -2.68 M102.28 36.29 C92.34 27.65, 82.4 19.01, 57 -3.07 M102.28 36.29 C86.01 22.15, 69.74 8, 57 -3.07 M101.89 30.65 C91.04 21.22, 80.19 11.79, 63.4 -2.81 M101.89 30.65 C89.86 20.19, 77.83 9.73, 63.4 -2.81 M102.25 25.66 C94.06 18.54, 85.87 11.43, 69.79 -2.55 M102.25 25.66 C94.78 19.17, 87.31 12.68, 69.79 -2.55 M101.85 20.02 C94.96 14.03, 88.08 8.04, 75.44 -2.95 M101.85 20.02 C94.66 13.77, 87.47 7.52, 75.44 -2.95 M102.21 15.03 C96.3 9.89, 90.38 4.75, 81.83 -2.68 M102.21 15.03 C97.02 10.52, 91.83 6.01, 81.83 -2.68 M101.82 9.39 C98.83 6.79, 95.84 4.19, 87.48 -3.08 M101.82 9.39 C97.25 5.42, 92.68 1.45, 87.48 -3.08 M102.18 4.4 C98.86 1.52, 95.55 -1.36, 93.87 -2.82 M102.18 4.4 C98.87 1.53, 95.57 -1.34, 93.87 -2.82" stroke="#4c6ef588" stroke-width="0.5" fill="none"></path><path d="M0 0 C39.07 0, 78.14 0, 101.08 0 M0 0 C22.32 0, 44.64 0, 101.08 0 M101.08 0 C101.08 33.81, 101.08 67.61, 101.08 101.08 M101.08 0 C101.08 28.79, 101.08 57.59, 101.08 101.08 M101.08 101.08 C69.6 101.08, 38.11 101.08, 0 101.08 M101.08 101.08 C76.76 101.08, 52.45 101.08, 0 101.08 M0 101.08 C0 77.12, 0 53.17, 0 0 M0 101.08 C0 79.71, 0 58.34, 0 0" stroke="#1864ab" stroke-width="1" fill="none"></path></g><g stroke-linecap="round"><g transform="translate(328.1710363613822 176.53244593571208) rotate(347.8150297286332 3.5063687908285033 5.288053096842759)"><path d="M0 0 C1.78 2.69, 3.56 5.37, 7.01 10.58 M0 0 C1.78 2.68, 3.56 5.36, 7.01 10.58" stroke="#1864ab" stroke-width="1" fill="none"></path></g></g><mask></mask><g stroke-linecap="round"><g transform="translate(333.6118583551861 111.0373168790095) rotate(1.7147489031136585 -3.7883252017467157 5.581868942545157)"><path d="M0 0 C-2.64 3.89, -5.27 7.77, -7.58 11.16 M0 0 C-2.56 3.77, -5.11 7.53, -7.58 11.16" stroke="#1864ab" stroke-width="1" fill="none"></path></g></g><mask></mask><g stroke-linecap="round"><g transform="translate(340.1645698229855 181.41071959592796) rotate(330.3350417630171 -5.4573975738337595 3.902948892765721)"><path d="M0 0 C-1.47 2.78, -2.94 5.56, -4.12 7.81 M0 0 C-1.06 2, -2.11 4, -4.12 7.81 M-4.12 7.81 C-5.94 6.56, -7.75 5.32, -10.91 3.16 M-4.12 7.81 C-5.91 6.59, -7.69 5.37, -10.91 3.16" stroke="#1864ab" stroke-width="1" fill="none"></path></g></g><mask></mask><g stroke-linecap="round"><g transform="translate(267.02316609735783 110.03756200578277) rotate(142.4753661383674 -5.032705331413979 3.4392676481417084)"><path d="M0 0 C-1.87 2.71, -3.73 5.41, -4.74 6.88 M0 0 C-1.65 2.39, -3.29 4.78, -4.74 6.88 M-4.74 6.88 C-6.14 5.24, -7.54 3.6, -10.07 0.65 M-4.74 6.88 C-6.27 5.08, -7.81 3.29, -10.07 0.65" stroke="#1864ab" stroke-width="1" fill="none"></path></g></g><mask></mask><g stroke-linecap="round"><g transform="translate(262.023898903302 112.1090046913298) rotate(347.8150297286332 3.5063687908285033 5.288053096842759)"><path d="M0 0 C1.52 2.3, 3.04 4.59, 7.01 10.58 M0 0 C2.03 3.06, 4.06 6.12, 7.01 10.58" stroke="#1864ab" stroke-width="1" fill="none"></path></g></g><mask></mask><g stroke-linecap="round"><g transform="translate(269.82648481876856 176.14624895852057) rotate(3.9451862290376525 -3.7883252017467157 5.581868942545157)"><path d="M0 0 C-2.23 3.29, -4.46 6.58, -7.58 11.16 M0 0 C-2.45 3.61, -4.9 7.21, -7.58 11.16" stroke="#1864ab" stroke-width="1" fill="none"></path></g></g><mask></mask><g stroke-linecap="round"><g transform="translate(338.6394309284651 108.80977935589908) rotate(220.82937908555525 -5.032705331413979 3.4392676481417084)"><path d="M0 0 C-1.52 2.2, -3.04 4.41, -4.74 6.88 M0 0 C-0.98 1.43, -1.97 2.85, -4.74 6.88 M-4.74 6.88 C-6.52 4.79, -8.31 2.7, -10.07 0.65 M-4.74 6.88 C-5.99 5.42, -7.23 3.96, -10.07 0.65" stroke="#1864ab" stroke-width="1" fill="none"></path></g></g><mask></mask><g stroke-linecap="round"><g transform="translate(267.0664369637017 182.75286463538782) rotate(38.039922017610984 -5.032705331413979 3.4392676481417084)"><path d="M0 0 C-1.83 2.65, -3.66 5.31, -4.74 6.88 M0 0 C-1.59 2.3, -3.18 4.61, -4.74 6.88 M-4.74 6.88 C-6.46 4.87, -8.17 2.86, -10.07 0.65 M-4.74 6.88 C-6.68 4.61, -8.62 2.34, -10.07 0.65" stroke="#1864ab" stroke-width="1" fill="none"></path></g></g><mask></mask><g stroke-linecap="round"><g transform="translate(280.1294633722267 127.30674663692821) rotate(0 17.97888075116623 23.306087173854166)"><path d="M0 0 C0 6.6, -0.1 31.82, 0 39.61 C0.1 47.41, -0.2 45.14, 0.63 46.77 C1.45 48.41, 3.15 48.62, 4.95 49.41 C6.75 50.19, 9.19 51.05, 11.42 51.49 C13.65 51.92, 16.19 52.02, 18.33 52.02 C20.46 52.02, 22.31 51.8, 24.22 51.49 C26.12 51.18, 27.9 51, 29.74 50.16 C31.58 49.33, 34.28 48.25, 35.26 46.49 C36.24 44.73, 35.52 46.46, 35.63 39.61 C35.75 32.76, 35.96 12.03, 35.93 5.4 C35.91 -1.24, 36.3 1.25, 35.48 -0.17 C34.66 -1.6, 32.59 -2.37, 31.01 -3.14 C29.43 -3.92, 27.92 -4.46, 26 -4.83 C24.08 -5.19, 21.26 -5.24, 19.48 -5.32 C17.71 -5.4, 17.5 -5.49, 15.35 -5.31 C13.19 -5.12, 9.1 -5.12, 6.54 -4.24 C3.98 -3.35, 1.09 -0.71, 0 0 M0 0 C0 6.6, -0.1 31.82, 0 39.61 C0.1 47.41, -0.2 45.14, 0.63 46.77 C1.45 48.41, 3.15 48.62, 4.95 49.41 C6.75 50.19, 9.19 51.05, 11.42 51.49 C13.65 51.92, 16.19 52.02, 18.33 52.02 C20.46 52.02, 22.31 51.8, 24.22 51.49 C26.12 51.18, 27.9 51, 29.74 50.16 C31.58 49.33, 34.28 48.25, 35.26 46.49 C36.24 44.73, 35.52 46.46, 35.63 39.61 C35.75 32.76, 35.96 12.03, 35.93 5.4 C35.91 -1.24, 36.3 1.25, 35.48 -0.17 C34.66 -1.6, 32.59 -2.37, 31.01 -3.14 C29.43 -3.92, 27.92 -4.46, 26 -4.83 C24.08 -5.19, 21.26 -5.24, 19.48 -5.32 C17.71 -5.4, 17.5 -5.49, 15.35 -5.31 C13.19 -5.12, 9.1 -5.12, 6.54 -4.24 C3.98 -3.35, 1.09 -0.71, 0 0" stroke="#1864ab" stroke-width="1" fill="none"></path></g></g><mask></mask><g stroke-linecap="round" transform="translate(279.99716260706293 121.79622372279664) rotate(0 17.93466944099424 4.876344776661881)"><path d="M35.87 4.88 C35.87 5.16, 35.78 5.45, 35.6 5.72 C35.42 6, 35.14 6.28, 34.79 6.54 C34.43 6.81, 33.99 7.07, 33.47 7.31 C32.95 7.56, 32.34 7.79, 31.67 8.01 C31.01 8.23, 30.26 8.43, 29.46 8.61 C28.67 8.79, 27.8 8.96, 26.9 9.1 C26 9.24, 25.04 9.36, 24.07 9.46 C23.09 9.56, 22.07 9.63, 21.05 9.68 C20.03 9.73, 18.97 9.75, 17.93 9.75 C16.9 9.75, 15.84 9.73, 14.82 9.68 C13.8 9.63, 12.78 9.56, 11.8 9.46 C10.83 9.36, 9.87 9.24, 8.97 9.1 C8.07 8.96, 7.2 8.79, 6.41 8.61 C5.61 8.43, 4.86 8.23, 4.2 8.01 C3.53 7.79, 2.92 7.56, 2.4 7.31 C1.88 7.07, 1.44 6.81, 1.08 6.54 C0.73 6.28, 0.45 6, 0.27 5.72 C0.09 5.45, 0 5.16, 0 4.88 C0 4.59, 0.09 4.31, 0.27 4.03 C0.45 3.75, 0.73 3.47, 1.08 3.21 C1.44 2.94, 1.88 2.68, 2.4 2.44 C2.92 2.19, 3.53 1.96, 4.2 1.74 C4.86 1.53, 5.61 1.32, 6.41 1.14 C7.2 0.96, 8.07 0.79, 8.97 0.65 C9.87 0.51, 10.83 0.39, 11.8 0.29 C12.78 0.2, 13.8 0.12, 14.82 0.07 C15.84 0.03, 16.9 0, 17.93 0 C18.97 0, 20.03 0.03, 21.05 0.07 C22.07 0.12, 23.09 0.2, 24.07 0.29 C25.04 0.39, 26 0.51, 26.9 0.65 C27.8 0.79, 28.67 0.96, 29.46 1.14 C30.26 1.32, 31.01 1.53, 31.67 1.74 C32.34 1.96, 32.95 2.19, 33.47 2.44 C33.99 2.68, 34.43 2.94, 34.79 3.21 C35.14 3.47, 35.42 3.75, 35.6 4.03 C35.78 4.31, 35.82 4.74, 35.87 4.88 C35.91 5.02, 35.91 4.74, 35.87 4.88" stroke="none" stroke-width="0" fill="#ffffff"></path><path d="M35.87 4.88 C35.87 5.16, 35.78 5.45, 35.6 5.72 C35.42 6, 35.14 6.28, 34.79 6.54 C34.43 6.81, 33.99 7.07, 33.47 7.31 C32.95 7.56, 32.34 7.79, 31.67 8.01 C31.01 8.23, 30.26 8.43, 29.46 8.61 C28.67 8.79, 27.8 8.96, 26.9 9.1 C26 9.24, 25.04 9.36, 24.07 9.46 C23.09 9.56, 22.07 9.63, 21.05 9.68 C20.03 9.73, 18.97 9.75, 17.93 9.75 C16.9 9.75, 15.84 9.73, 14.82 9.68 C13.8 9.63, 12.78 9.56, 11.8 9.46 C10.83 9.36, 9.87 9.24, 8.97 9.1 C8.07 8.96, 7.2 8.79, 6.41 8.61 C5.61 8.43, 4.86 8.23, 4.2 8.01 C3.53 7.79, 2.92 7.56, 2.4 7.31 C1.88 7.07, 1.44 6.81, 1.08 6.54 C0.73 6.28, 0.45 6, 0.27 5.72 C0.09 5.45, 0 5.16, 0 4.88 C0 4.59, 0.09 4.31, 0.27 4.03 C0.45 3.75, 0.73 3.47, 1.08 3.21 C1.44 2.94, 1.88 2.68, 2.4 2.44 C2.92 2.19, 3.53 1.96, 4.2 1.74 C4.86 1.53, 5.61 1.32, 6.41 1.14 C7.2 0.96, 8.07 0.79, 8.97 0.65 C9.87 0.51, 10.83 0.39, 11.8 0.29 C12.78 0.2, 13.8 0.12, 14.82 0.07 C15.84 0.03, 16.9 0, 17.93 0 C18.97 0, 20.03 0.03, 21.05 0.07 C22.07 0.12, 23.09 0.2, 24.07 0.29 C25.04 0.39, 26 0.51, 26.9 0.65 C27.8 0.79, 28.67 0.96, 29.46 1.14 C30.26 1.32, 31.01 1.53, 31.67 1.74 C32.34 1.96, 32.95 2.19, 33.47 2.44 C33.99 2.68, 34.43 2.94, 34.79 3.21 C35.14 3.47, 35.42 3.75, 35.6 4.03 C35.78 4.31, 35.82 4.74, 35.87 4.88 C35.91 5.02, 35.91 4.74, 35.87 4.88" stroke="#1864ab" stroke-width="1" fill="none"></path></g><g stroke-linecap="round"><g transform="translate(280.6179724151067 141.46294507789503) rotate(0 17.634468831037168 1.8159571630027358)"><path d="M0 0 C0.18 0.19, 0.46 0.76, 1.06 1.15 C1.66 1.53, 2.68 2.02, 3.62 2.33 C4.56 2.65, 5.18 2.77, 6.7 3.05 C8.22 3.33, 10.75 3.83, 12.72 4 C14.69 4.17, 16.69 4.1, 18.51 4.06 C20.33 4.01, 22.04 3.88, 23.64 3.73 C25.23 3.58, 26.64 3.42, 28.07 3.14 C29.51 2.86, 31.2 2.43, 32.26 2.04 C33.31 1.65, 33.91 1.22, 34.41 0.8 C34.92 0.38, 35.13 -0.26, 35.27 -0.47 M0 0 C0.18 0.19, 0.46 0.76, 1.06 1.15 C1.66 1.53, 2.68 2.02, 3.62 2.33 C4.56 2.65, 5.18 2.77, 6.7 3.05 C8.22 3.33, 10.75 3.83, 12.72 4 C14.69 4.17, 16.69 4.1, 18.51 4.06 C20.33 4.01, 22.04 3.88, 23.64 3.73 C25.23 3.58, 26.64 3.42, 28.07 3.14 C29.51 2.86, 31.2 2.43, 32.26 2.04 C33.31 1.65, 33.91 1.22, 34.41 0.8 C34.92 0.38, 35.13 -0.26, 35.27 -0.47" stroke="#1864ab" stroke-width="1" fill="none"></path></g></g><mask></mask><g stroke-linecap="round"><g transform="translate(279.62064826244784 158.13529806145561) rotate(0 17.634468831037168 1.8159571630027358)"><path d="M0 0 C0.18 0.19, 0.46 0.76, 1.06 1.15 C1.66 1.53, 2.68 2.02, 3.62 2.33 C4.56 2.65, 5.18 2.77, 6.7 3.05 C8.22 3.33, 10.75 3.83, 12.72 4 C14.69 4.17, 16.69 4.1, 18.51 4.06 C20.33 4.01, 22.04 3.88, 23.64 3.73 C25.23 3.58, 26.64 3.42, 28.07 3.14 C29.51 2.86, 31.2 2.43, 32.26 2.04 C33.31 1.65, 33.91 1.22, 34.41 0.8 C34.92 0.38, 35.13 -0.26, 35.27 -0.47 M0 0 C0.18 0.19, 0.46 0.76, 1.06 1.15 C1.66 1.53, 2.68 2.02, 3.62 2.33 C4.56 2.65, 5.18 2.77, 6.7 3.05 C8.22 3.33, 10.75 3.83, 12.72 4 C14.69 4.17, 16.69 4.1, 18.51 4.06 C20.33 4.01, 22.04 3.88, 23.64 3.73 C25.23 3.58, 26.64 3.42, 28.07 3.14 C29.51 2.86, 31.2 2.43, 32.26 2.04 C33.31 1.65, 33.91 1.22, 34.41 0.8 C34.92 0.38, 35.13 -0.26, 35.27 -0.47" stroke="#1864ab" stroke-width="1" fill="none"></path></g></g><mask></mask><g stroke-linecap="round"><g transform="translate(279.49920414619623 137.42034939231507) rotate(345.7367506517737 -7.2495801156858874 13.723247391432437)"><path d="M0 0 C-0.9 0.2, -3.86 0.61, -5.38 1.2 C-6.9 1.79, -8.05 2.64, -9.13 3.52 C-10.2 4.41, -11.01 5.2, -11.82 6.5 C-12.63 7.8, -13.53 9.91, -13.98 11.33 C-14.42 12.75, -14.58 13.52, -14.46 15.03 C-14.35 16.54, -13.86 18.82, -13.29 20.37 C-12.71 21.93, -11.95 23.16, -11 24.33 C-10.06 25.51, -8.17 26.93, -7.6 27.45 M0 0 C-0.9 0.2, -3.86 0.61, -5.38 1.2 C-6.9 1.79, -8.05 2.64, -9.13 3.52 C-10.2 4.41, -11.01 5.2, -11.82 6.5 C-12.63 7.8, -13.53 9.91, -13.98 11.33 C-14.42 12.75, -14.58 13.52, -14.46 15.03 C-14.35 16.54, -13.86 18.82, -13.29 20.37 C-12.71 21.93, -11.95 23.16, -11 24.33 C-10.06 25.51, -8.17 26.93, -7.6 27.45" stroke="#1864ab" stroke-width="1" fill="none"></path></g></g><mask></mask><g stroke-linecap="round"><g transform="translate(315.5486730425962 137.4544773548448) rotate(17.81142405980979 8.241494526072927 14.008153413913874)"><path d="M0 0 C1.02 0.2, 4.39 0.62, 6.12 1.22 C7.85 1.82, 9.16 2.69, 10.38 3.6 C11.6 4.5, 12.52 5.31, 13.44 6.64 C14.36 7.97, 15.39 10.11, 15.89 11.56 C16.39 13.01, 16.57 13.8, 16.44 15.34 C16.31 16.88, 15.76 19.21, 15.1 20.8 C14.45 22.38, 13.59 23.64, 12.51 24.84 C11.43 26.04, 9.29 27.49, 8.64 28.02 M0 0 C1.02 0.2, 4.39 0.62, 6.12 1.22 C7.85 1.82, 9.16 2.69, 10.38 3.6 C11.6 4.5, 12.52 5.31, 13.44 6.64 C14.36 7.97, 15.39 10.11, 15.89 11.56 C16.39 13.01, 16.57 13.8, 16.44 15.34 C16.31 16.88, 15.76 19.21, 15.1 20.8 C14.45 22.38, 13.59 23.64, 12.51 24.84 C11.43 26.04, 9.29 27.49, 8.64 28.02" stroke="#1864ab" stroke-width="1" fill="none"></path></g></g><mask></mask><g stroke-linecap="round" transform="translate(166.6399709595978 39) rotate(0 281.5 140.5)"><path d="M32 0 M32 0 C132.45 0, 232.91 0, 531 0 M32 0 C212.83 0, 393.65 0, 531 0 M531 0 C552.33 0, 563 10.67, 563 32 M531 0 C552.33 0, 563 10.67, 563 32 M563 32 C563 111.55, 563 191.1, 563 249 M563 32 C563 112.42, 563 192.84, 563 249 M563 249 C563 270.33, 552.33 281, 531 281 M563 249 C563 270.33, 552.33 281, 531 281 M531 281 C363.64 281, 196.28 281, 32 281 M531 281 C411.04 281, 291.08 281, 32 281 M32 281 C10.67 281, 0 270.33, 0 249 M32 281 C10.67 281, 0 270.33, 0 249 M0 249 C0 188.24, 0 127.49, 0 32 M0 249 C0 166.1, 0 83.19, 0 32 M0 32 C0 10.67, 10.67 0, 32 0 M0 32 C0 10.67, 10.67 0, 32 0" stroke="#000000" stroke-width="1" fill="none"></path></g><g transform="translate(437.6399709595978 10) rotate(0 21.5 12)"><text x="0" y="17" font-family="Helvetica, Segoe UI Emoji" font-size="20px" fill="#000000" text-anchor="start" style="white-space: pre;" direction="ltr">VPC</text></g><g stroke-linecap="round" transform="translate(202.6399709595978 65) rotate(0 107.5 103.5)"><path d="M32 0 M32 0 C74.16 0, 116.31 0, 183 0 M183 0 C204.33 0, 215 10.67, 215 32 M215 32 C215 67.72, 215 103.45, 215 175 M215 175 C215 196.33, 204.33 207, 183 207 M183 207 C142.41 207, 101.83 207, 32 207 M32 207 C10.67 207, 0 196.33, 0 175 M0 175 C0 145.08, 0 115.15, 0 32 M0 32 C0 10.67, 10.67 0, 32 0" stroke="#1864ab" stroke-width="1.5" fill="none" stroke-dasharray="8 9"></path></g><g stroke-linecap="round" transform="translate(484.6399709595978 67) rotate(0 113 103.5)"><path d="M32 0 M32 0 C91.89 0, 151.78 0, 194 0 M194 0 C215.33 0, 226 10.67, 226 32 M226 32 C226 76.5, 226 120.99, 226 175 M226 175 C226 196.33, 215.33 207, 194 207 M194 207 C132.05 207, 70.09 207, 32 207 M32 207 C10.67 207, 0 196.33, 0 175 M0 175 C0 143.15, 0 111.3, 0 32 M0 32 C0 10.67, 10.67 0, 32 0" stroke="#1864ab" stroke-width="1.5" fill="none" stroke-dasharray="8 9"></path></g><g transform="translate(267.6399709595978 282) rotate(0 21.5 12)"><text x="0" y="17" font-family="Helvetica, Segoe UI Emoji" font-size="20px" fill="#1864ab" text-anchor="start" style="white-space: pre;" direction="ltr">AZ-a</text></g><g transform="translate(560.6399709595978 284) rotate(0 22 12)"><text x="0" y="17" font-family="Helvetica, Segoe UI Emoji" font-size="20px" fill="#1864ab" text-anchor="start" style="white-space: pre;" direction="ltr">AZ-b</text></g><g mask="url(#mask-vGReKvA-3HQQUwT4pLyGI)" stroke-linecap="round"><g transform="translate(355.6399709595978 165) rotate(0 96 0.5)"><path d="M0 0 C32 0.17, 160 0.83, 192 1 M0 0 C32 0.17, 160 0.83, 192 1" stroke="#5f3dc4" stroke-width="1" fill="none"></path></g><g transform="translate(355.6399709595978 165) rotate(0 96 0.5)"><path d="M163.76 11.11 C173.56 7.6, 183.36 4.1, 192 1 M163.76 11.11 C174.09 7.41, 184.43 3.71, 192 1" stroke="#5f3dc4" stroke-width="1" fill="none"></path></g><g transform="translate(355.6399709595978 165) rotate(0 96 0.5)"><path d="M163.86 -9.41 C173.63 -5.8, 183.39 -2.18, 192 1 M163.86 -9.41 C174.16 -5.6, 184.46 -1.79, 192 1" stroke="#5f3dc4" stroke-width="1" fill="none"></path></g></g><mask id="mask-vGReKvA-3HQQUwT4pLyGI"><rect x="0" y="0" fill="#fff" width="647.6399709595978" height="266"></rect><rect x="422.1399709595978" y="147" fill="#000" width="59" height="37" opacity="1"></rect></mask><g transform="translate(422.1399709595978 147) rotate(0 29.5 18.5)"><text x="29.5" y="26" font-family="Virgil, Segoe UI Emoji" font-size="28px" fill="#5f3dc4" text-anchor="middle" style="white-space: pre;" direction="ltr">Sync</text></g><g mask="url(#mask-fphc_vpG9wbgM_nsfDsQH)" stroke-linecap="round"><g transform="translate(101.46995666390944 131.3804218023729) rotate(0 72.70932484141633 12.5383587776779)"><path d="M0 0 C24.24 4.18, 121.18 20.9, 145.42 25.08 M0 0 C24.24 4.18, 121.18 20.9, 145.42 25.08" stroke="#000000" stroke-width="1" fill="none"></path></g><g transform="translate(101.46995666390944 131.3804218023729) rotate(0 72.70932484141633 12.5383587776779)"><path d="M115.89 30.4 C122.57 29.19, 129.25 27.99, 145.42 25.08 M115.89 30.4 C124.11 28.92, 132.33 27.44, 145.42 25.08" stroke="#000000" stroke-width="1" fill="none"></path></g><g transform="translate(101.46995666390944 131.3804218023729) rotate(0 72.70932484141633 12.5383587776779)"><path d="M119.38 10.17 C125.27 13.54, 131.16 16.91, 145.42 25.08 M119.38 10.17 C126.63 14.32, 133.87 18.47, 145.42 25.08" stroke="#000000" stroke-width="1" fill="none"></path></g></g><mask id="mask-fphc_vpG9wbgM_nsfDsQH"><rect x="0" y="0" fill="#fff" width="346.8886063467421" height="256.4571393577287"></rect><rect x="148.17928150532578" y="130.91878058005068" fill="#000" width="52" height="26" opacity="1"></rect></mask><g transform="translate(148.17928150532578 130.91878058005068) rotate(0 26 13.000000000000114)"><text x="26" y="18" font-family="Virgil, Segoe UI Emoji" font-size="20px" fill="#000000" text-anchor="middle" style="white-space: pre;" direction="ltr">Write</text></g><g mask="url(#mask-bBxGIdznY_O7vvwjgvihi)" stroke-linecap="round"><g transform="translate(239.8886063467421 189.25068149731578) rotate(0 -65.66609951324392 -11.04929636542738)"><path d="M0 0 C-21.89 -3.68, -109.44 -18.42, -131.33 -22.1 M0 0 C-21.89 -3.68, -109.44 -18.42, -131.33 -22.1" stroke="#343a40" stroke-width="1" fill="none"></path></g><g transform="translate(239.8886063467421 189.25068149731578) rotate(0 -65.66609951324392 -11.04929636542738)"><path d="M-101.83 -27.54 C-112.67 -25.54, -123.51 -23.54, -131.33 -22.1 M-101.83 -27.54 C-109.49 -26.13, -117.16 -24.71, -131.33 -22.1" stroke="#343a40" stroke-width="1" fill="none"></path></g><g transform="translate(239.8886063467421 189.25068149731578) rotate(0 -65.66609951324392 -11.04929636542738)"><path d="M-105.23 -7.3 C-114.82 -12.74, -124.41 -18.18, -131.33 -22.1 M-105.23 -7.3 C-112.02 -11.15, -118.8 -14.99, -131.33 -22.1" stroke="#343a40" stroke-width="1" fill="none"></path></g></g><mask id="mask-bBxGIdznY_O7vvwjgvihi"><rect x="0" y="0" fill="#fff" width="471.22080537322995" height="311.34927422817054"></rect><rect x="148.7225068334982" y="165.2013851318884" fill="#000" width="51" height="26" opacity="1"></rect></mask><g transform="translate(148.7225068334982 165.2013851318884) rotate(0 25.5 13)"><text x="25.5" y="18" font-family="Virgil, Segoe UI Emoji" font-size="20px" fill="#343a40" text-anchor="middle" style="white-space: pre;" direction="ltr">Read</text></g><g stroke-linecap="round" transform="translate(23.859505699174747 104.42410960442862) rotate(0 34.36302776324993 19.605899275964703)"><path d="M1.75 0.13 C19.02 -0.71, 42.31 -1.68, 70.71 0.36 M0.87 -0.41 C26.08 1.19, 50.59 1.12, 68.88 0.01 M67.25 0.51 C70.21 9.2, 70.41 17.55, 69.46 38.44 M68.71 0.32 C67.66 14.28, 68.32 27.6, 68.49 39.59 M67.41 37.46 C50.95 37.58, 36.5 40.69, 1.83 40.22 M69.22 39.1 C41.29 39.62, 14.53 39.77, -0.53 39.03 M1.57 38.48 C-0.59 26.78, -0.03 15.94, -0.36 1.12 M0.92 38.35 C-1.16 30.44, 0.37 22.69, -0.56 0" stroke="#000000" stroke-width="1" fill="none"></path></g><g stroke-linecap="round" transform="translate(20.06481551672863 99.36452269450183) rotate(0 38.15771794569474 24.2438539433972)"><path d="M0.13 -1.98 C22.53 -0.36, 45.12 1.32, 76.68 1.39 M-0.41 0.68 C16.03 -0.86, 31.23 -0.52, 76.33 -0.81 M76.82 1.62 C76.92 14.62, 76.66 26.32, 75.54 49.73 M76.64 -0.72 C76.02 10.25, 75.15 20.39, 76.7 47.97 M74.56 47.78 C46.33 49.9, 20.9 49.82, 1 50.42 M76.2 48.3 C60.29 49.18, 44.56 48.33, -0.18 48.5 M-0.73 48.04 C-0.59 32.28, 0.4 15.49, 1.12 -1.56 M-0.87 47.6 C0.02 31.25, 0.99 12.17, 0 0.05" stroke="#000000" stroke-width="1" fill="none"></path></g><g stroke-linecap="round"><g transform="translate(10.063698560930789 163.51147873447417) rotate(0 48.97785474554536 -7.192934711479893)"><path d="M1.82 0.34 C32.04 -1.06, 63.86 -2.04, 94.7 -0.03 M-0.06 -0.79 C31.73 0.3, 63.4 0.66, 95.97 -0.66 M98.02 1.55 C95.69 -2.34, 93.47 -8.18, 86.87 -14.15 M96.53 0.01 C92.64 -4.53, 90 -8.38, 85.33 -14.34 M85.48 -14.68 C64.83 -14.28, 43.45 -14.14, 8.46 -13.64 M86 -14.15 C68.46 -15.2, 52.73 -14.36, 9.42 -14.82 M9.36 -15.93 C4.49 -8.75, 2.05 -2.94, 0.49 1.23 M8.41 -14.69 C7.31 -11.63, 5.01 -8.13, 0.18 -0.8" stroke="#000000" stroke-width="1" fill="none"></path></g></g><mask></mask><g stroke-linecap="round" transform="translate(11.313286825462228 165.54219612366546) rotate(0 48.12156024739602 0.9763794832805388)"><path d="M0.34 0.73 C35.9 0.36, 71.6 -2.42, 96.21 0.64 M-0.79 -0.23 C22.29 -0.46, 44.56 -0.21, 95.59 -0.88 M96.41 0.18 C96.33 0.71, 96.05 1.19, 96.34 1.93 M96.24 -0.05 C96.22 0.55, 96.28 1.1, 96.32 1.92 M96.63 1.59 C70.64 0.45, 44.16 1.68, 1.85 0.22 M97.15 1.39 C75.9 2.62, 56.49 3.2, 0.66 2.94 M-0.05 1.87 C0.07 1.43, 0.03 0.9, 0.13 -0.17 M0.09 1.99 C0.08 1.27, 0.1 0.64, -0.09 -0.05" stroke="#000000" stroke-width="1" fill="none"></path></g><g stroke-opacity="0.3" fill-opacity="0.3" transform="translate(595.6399709595978 331.5) rotate(0 62.5 10.5)"><text x="0" y="14" font-family="Virgil, Segoe UI Emoji" font-size="16px" fill="#495057" text-anchor="start" style="white-space: pre;" direction="ltr">Samyouaret.com</text></g></svg>